G04 #@! TF.FileFunction,Copper,L1,Top,Signal*
%FSLAX46Y46*%
G04 Gerber Fmt 4.6, Leading zero omitted, Abs format (unit mm)*
G04 Created by KiCad (PCBNEW 4.0.5) date Wednesday, August 30, 2017 'PMt' 12:57:39 PM*
%MOMM*%
%LPD*%
G01*
G04 APERTURE LIST*
%ADD10C,0.100000*%
%ADD11C,1.300000*%
%ADD12R,1.300000X1.300000*%
%ADD13R,1.198880X1.198880*%
%ADD14R,1.500000X1.300000*%
%ADD15R,1.300000X1.500000*%
%ADD16O,1.524000X2.540000*%
%ADD17C,3.937000*%
%ADD18C,1.524000*%
%ADD19O,1.727200X2.032000*%
%ADD20R,1.727200X2.032000*%
%ADD21O,2.540000X2.540000*%
%ADD22R,2.540000X2.540000*%
%ADD23C,3.862000*%
%ADD24R,1.524000X1.524000*%
%ADD25C,0.685800*%
%ADD26C,0.609600*%
%ADD27C,0.203200*%
%ADD28C,0.304800*%
%ADD29C,0.508000*%
G04 APERTURE END LIST*
D10*
D11*
X120850000Y-99800000D03*
D12*
X118350000Y-99800000D03*
D11*
X149050000Y-97900000D03*
D12*
X146550000Y-97900000D03*
D11*
X97650000Y-101700000D03*
D12*
X95150000Y-101700000D03*
D13*
X99427115Y-129875000D03*
X97329075Y-129875000D03*
X86072980Y-89408000D03*
X88171020Y-89408000D03*
D14*
X162650000Y-121350000D03*
X165350000Y-121350000D03*
X162500000Y-123800000D03*
X165200000Y-123800000D03*
X162550000Y-126100000D03*
X165250000Y-126100000D03*
D15*
X110750000Y-88650000D03*
X110750000Y-85950000D03*
X108000000Y-88600000D03*
X108000000Y-85900000D03*
X105500000Y-88600000D03*
X105500000Y-85900000D03*
X155250000Y-125400000D03*
X155250000Y-128100000D03*
X152700000Y-125400000D03*
X152700000Y-128100000D03*
X150100000Y-125400000D03*
X150100000Y-128100000D03*
X147600000Y-125400000D03*
X147600000Y-128100000D03*
D14*
X97100000Y-126350000D03*
X99800000Y-126350000D03*
X88472000Y-92202000D03*
X85772000Y-92202000D03*
D16*
X142530000Y-83119200D03*
X145070000Y-83119200D03*
X147610000Y-83119200D03*
X150150000Y-83119200D03*
X152690000Y-83119200D03*
X155230000Y-83119200D03*
X157770000Y-83119200D03*
X160310000Y-83119200D03*
X165390000Y-131379200D03*
X162850000Y-131379200D03*
X160310000Y-131379200D03*
X157770000Y-131379200D03*
X147610000Y-131379200D03*
X142530000Y-131379200D03*
X139990000Y-131379200D03*
X150150000Y-131379200D03*
X152690000Y-131379200D03*
X155230000Y-131379200D03*
X137450000Y-131379200D03*
X134910000Y-131379200D03*
X132370000Y-131379200D03*
X124750000Y-131379200D03*
X127290000Y-131379200D03*
X129830000Y-131379200D03*
X119670000Y-131379200D03*
X117130000Y-131379200D03*
X114590000Y-131379200D03*
X109510000Y-131379200D03*
X106970000Y-131379200D03*
X137450000Y-83119200D03*
X134910000Y-83119200D03*
X132370000Y-83119200D03*
X129830000Y-83119200D03*
X127290000Y-83119200D03*
X124750000Y-83119200D03*
X122210000Y-83119200D03*
X119670000Y-83119200D03*
X115606000Y-83119200D03*
X113066000Y-83119200D03*
X110526000Y-83119200D03*
X107986000Y-83119200D03*
X105446000Y-83119200D03*
X102906000Y-83119200D03*
X100366000Y-83119200D03*
X97826000Y-83119200D03*
X112050000Y-131379200D03*
D17*
X170470000Y-131379200D03*
X164120000Y-83119200D03*
X89190000Y-83119200D03*
X87920000Y-131379200D03*
D18*
X167930000Y-85659200D03*
X170470000Y-85659200D03*
X167930000Y-88199200D03*
X170470000Y-88199200D03*
X167930000Y-90739200D03*
X170470000Y-90739200D03*
X167930000Y-93279200D03*
X170470000Y-93279200D03*
X167930000Y-83119200D03*
X170470000Y-83119200D03*
X170470000Y-95819200D03*
X167930000Y-95819200D03*
X167930000Y-98359200D03*
X170470000Y-98359200D03*
X167930000Y-100899200D03*
X170470000Y-100899200D03*
X167930000Y-103439200D03*
X170470000Y-103439200D03*
X167930000Y-105979200D03*
X170470000Y-105979200D03*
X167930000Y-108519200D03*
X170470000Y-108519200D03*
X167930000Y-111059200D03*
X170470000Y-111059200D03*
X167930000Y-113599200D03*
X170470000Y-113599200D03*
X167930000Y-116139200D03*
X170470000Y-116139200D03*
X167930000Y-118679200D03*
X170470000Y-118679200D03*
X167930000Y-121219200D03*
X170470000Y-121219200D03*
X167930000Y-123759200D03*
X170470000Y-123759200D03*
X167930000Y-126299200D03*
X170470000Y-126299200D03*
D19*
X162540000Y-91700000D03*
X160000000Y-91700000D03*
X157460000Y-91700000D03*
X154920000Y-91700000D03*
X152380000Y-91700000D03*
X149840000Y-91700000D03*
X147300000Y-91700000D03*
X144760000Y-91700000D03*
D20*
X144760000Y-104400000D03*
D19*
X147300000Y-104400000D03*
X149840000Y-104400000D03*
X152380000Y-104400000D03*
X154920000Y-104400000D03*
X157460000Y-104400000D03*
X160000000Y-104400000D03*
X162540000Y-104400000D03*
X133940000Y-93500000D03*
X131400000Y-93500000D03*
X128860000Y-93500000D03*
X126320000Y-93500000D03*
X123780000Y-93500000D03*
X121240000Y-93500000D03*
X118700000Y-93500000D03*
X116160000Y-93500000D03*
D20*
X116160000Y-106200000D03*
D19*
X118700000Y-106200000D03*
X121240000Y-106200000D03*
X123780000Y-106200000D03*
X126320000Y-106200000D03*
X128860000Y-106200000D03*
X131400000Y-106200000D03*
X133940000Y-106200000D03*
X110540000Y-95350000D03*
X108000000Y-95350000D03*
X105460000Y-95350000D03*
X102920000Y-95350000D03*
X100380000Y-95350000D03*
X97840000Y-95350000D03*
X95300000Y-95350000D03*
X92760000Y-95350000D03*
D20*
X92760000Y-108050000D03*
D19*
X95300000Y-108050000D03*
X97840000Y-108050000D03*
X100380000Y-108050000D03*
X102920000Y-108050000D03*
X105460000Y-108050000D03*
X108000000Y-108050000D03*
X110540000Y-108050000D03*
D21*
X178900000Y-87970000D03*
X178900000Y-93050000D03*
X178900000Y-98130000D03*
X178900000Y-103210000D03*
X178900000Y-108290000D03*
X178900000Y-113370000D03*
D22*
X178900000Y-123530000D03*
D21*
X178900000Y-118450000D03*
X130810000Y-144018000D03*
X125730000Y-144018000D03*
X120650000Y-144018000D03*
X115570000Y-144018000D03*
X110490000Y-144018000D03*
X105410000Y-144018000D03*
D22*
X95250000Y-144018000D03*
D21*
X100330000Y-144018000D03*
D18*
X155570000Y-109490000D03*
X153030000Y-109490000D03*
X150490000Y-109490000D03*
X158110000Y-109490000D03*
X153030000Y-117110000D03*
X123720000Y-111390000D03*
X121180000Y-111390000D03*
X118640000Y-111390000D03*
X126260000Y-111390000D03*
X121180000Y-119010000D03*
X99520000Y-113340000D03*
X96980000Y-113340000D03*
X94440000Y-113340000D03*
X102060000Y-113340000D03*
X96980000Y-120960000D03*
D22*
X80010000Y-144780000D03*
D21*
X85090000Y-144780000D03*
D22*
X133604000Y-70104000D03*
D21*
X128524000Y-70104000D03*
D23*
X175664000Y-75946000D03*
X142344000Y-75946000D03*
D24*
X149414000Y-77366000D03*
D18*
X152154000Y-77366000D03*
X154894000Y-77366000D03*
X157634000Y-77366000D03*
X160374000Y-77366000D03*
X163114000Y-77366000D03*
X165854000Y-77366000D03*
X168594000Y-77366000D03*
X150784000Y-74526000D03*
X153524000Y-74526000D03*
X156264000Y-74526000D03*
X159004000Y-74526000D03*
X161744000Y-74526000D03*
X164484000Y-74526000D03*
X167224000Y-74526000D03*
D23*
X142205000Y-138800000D03*
X167195000Y-138800000D03*
D24*
X160180000Y-137380000D03*
D18*
X157440000Y-137380000D03*
X154700000Y-137380000D03*
X151960000Y-137380000D03*
X149220000Y-137380000D03*
X158810000Y-140220000D03*
X156070000Y-140220000D03*
X153330000Y-140220000D03*
X150590000Y-140220000D03*
D23*
X119175000Y-75946000D03*
X94185000Y-75946000D03*
D24*
X112160000Y-77366000D03*
D18*
X109420000Y-77366000D03*
X106680000Y-77366000D03*
X103940000Y-77366000D03*
X101200000Y-77366000D03*
X102570000Y-74526000D03*
X105310000Y-74526000D03*
X108050000Y-74526000D03*
X110790000Y-74526000D03*
D25*
X95250000Y-129286000D03*
X104317800Y-117475000D03*
X105740200Y-115747800D03*
X107467400Y-101625400D03*
X107467400Y-98272600D03*
X86868000Y-103886000D03*
X88392000Y-106172000D03*
X164338000Y-96520000D03*
X166370000Y-94742000D03*
X164592000Y-93472000D03*
X166370000Y-91948000D03*
X158750000Y-102108000D03*
X163830000Y-102108000D03*
X156972000Y-100838000D03*
X165354000Y-128016000D03*
X166624000Y-122936000D03*
X165354000Y-119634000D03*
D26*
X146550000Y-97900000D02*
X146550000Y-97274000D01*
X118350000Y-99800000D02*
X118342000Y-99800000D01*
D27*
X92760000Y-95350000D02*
X91620000Y-95350000D01*
X91620000Y-95350000D02*
X88472000Y-92202000D01*
D26*
X91186000Y-101700000D02*
X91186000Y-96924000D01*
X91186000Y-96924000D02*
X92760000Y-95350000D01*
X118350000Y-99800000D02*
X118386000Y-99800000D01*
X118386000Y-99800000D02*
X120286000Y-97900000D01*
X120286000Y-97900000D02*
X146550000Y-97900000D01*
X95150000Y-101700000D02*
X95150000Y-101446000D01*
X95150000Y-101446000D02*
X96796000Y-99800000D01*
X96796000Y-99800000D02*
X118350000Y-99800000D01*
X80010000Y-144780000D02*
X80010000Y-112776000D01*
X91086000Y-101700000D02*
X91186000Y-101700000D01*
X91186000Y-101700000D02*
X95150000Y-101700000D01*
X80010000Y-112776000D02*
X91086000Y-101700000D01*
D27*
X97329075Y-129875000D02*
X95839000Y-129875000D01*
X95839000Y-129875000D02*
X95250000Y-129286000D01*
X88171020Y-89408000D02*
X89358000Y-89408000D01*
X89358000Y-89408000D02*
X95300000Y-95350000D01*
D28*
X107467400Y-98272600D02*
X98145600Y-98272600D01*
X102382600Y-88600000D02*
X105500000Y-88600000D01*
X96570800Y-94411800D02*
X102382600Y-88600000D01*
X96570800Y-96697800D02*
X96570800Y-94411800D01*
X98145600Y-98272600D02*
X96570800Y-96697800D01*
X108000000Y-95350000D02*
X108000000Y-97740000D01*
X100832800Y-120960000D02*
X96980000Y-120960000D01*
X104317800Y-117475000D02*
X100832800Y-120960000D01*
X106730800Y-114757200D02*
X105740200Y-115747800D01*
X106730800Y-102362000D02*
X106730800Y-114757200D01*
X107467400Y-101625400D02*
X106730800Y-102362000D01*
X108000000Y-97740000D02*
X107467400Y-98272600D01*
X162500000Y-123800000D02*
X162500000Y-121500000D01*
X162500000Y-121500000D02*
X162650000Y-121350000D01*
X162550000Y-126100000D02*
X162550000Y-123850000D01*
X162550000Y-123850000D02*
X162500000Y-123800000D01*
X108000000Y-88600000D02*
X105500000Y-88600000D01*
X108000000Y-88600000D02*
X110700000Y-88600000D01*
X110700000Y-88600000D02*
X110750000Y-88650000D01*
X131400000Y-93500000D02*
X131400000Y-94152000D01*
X131400000Y-94152000D02*
X130048000Y-95504000D01*
X108000000Y-96570000D02*
X108000000Y-95350000D01*
X108966000Y-97536000D02*
X108000000Y-96570000D01*
X112014000Y-97536000D02*
X108966000Y-97536000D01*
X114046000Y-95504000D02*
X112014000Y-97536000D01*
X130048000Y-95504000D02*
X114046000Y-95504000D01*
X160000000Y-91700000D02*
X160000000Y-92222000D01*
X160000000Y-92222000D02*
X158242000Y-93980000D01*
X133658000Y-95758000D02*
X131400000Y-93500000D01*
X135128000Y-95758000D02*
X133658000Y-95758000D01*
X136906000Y-93980000D02*
X135128000Y-95758000D01*
X158242000Y-93980000D02*
X136906000Y-93980000D01*
X178900000Y-87970000D02*
X174584000Y-87970000D01*
X164832000Y-86868000D02*
X160000000Y-91700000D01*
X173482000Y-86868000D02*
X164832000Y-86868000D01*
X174584000Y-87970000D02*
X173482000Y-86868000D01*
X162550000Y-126100000D02*
X162444000Y-126100000D01*
X162444000Y-126100000D02*
X159004000Y-129540000D01*
X181356000Y-89662000D02*
X179664000Y-87970000D01*
X181356000Y-134366000D02*
X181356000Y-89662000D01*
X170688000Y-145034000D02*
X181356000Y-134366000D01*
X150114000Y-145034000D02*
X170688000Y-145034000D01*
X147574000Y-142494000D02*
X150114000Y-145034000D01*
X147574000Y-140970000D02*
X147574000Y-142494000D01*
X149606000Y-138938000D02*
X147574000Y-140970000D01*
X152400000Y-138938000D02*
X149606000Y-138938000D01*
X153162000Y-138176000D02*
X152400000Y-138938000D01*
X153162000Y-136906000D02*
X153162000Y-138176000D01*
X154178000Y-135890000D02*
X153162000Y-136906000D01*
X156718000Y-135890000D02*
X154178000Y-135890000D01*
X159004000Y-133604000D02*
X156718000Y-135890000D01*
X159004000Y-129540000D02*
X159004000Y-133604000D01*
X179664000Y-87970000D02*
X178900000Y-87970000D01*
D27*
X162500000Y-121500000D02*
X162650000Y-121350000D01*
D28*
X155250000Y-125400000D02*
X159258000Y-125400000D01*
X159258000Y-125400000D02*
X159436000Y-125400000D01*
X159436000Y-125400000D02*
X160136000Y-126100000D01*
X160136000Y-126100000D02*
X162550000Y-126100000D01*
X155250000Y-125400000D02*
X155250000Y-123754000D01*
X155250000Y-123754000D02*
X153030000Y-121534000D01*
X150100000Y-123204000D02*
X148576000Y-123204000D01*
X147574000Y-124206000D02*
X147574000Y-125374000D01*
X148576000Y-123204000D02*
X147574000Y-124206000D01*
X147574000Y-125374000D02*
X147600000Y-125400000D01*
X153030000Y-118872000D02*
X153030000Y-120274000D01*
X150100000Y-123204000D02*
X150100000Y-125400000D01*
X153030000Y-120274000D02*
X150100000Y-123204000D01*
X153030000Y-117110000D02*
X153030000Y-118872000D01*
X153030000Y-118872000D02*
X153030000Y-121534000D01*
X153030000Y-121534000D02*
X153030000Y-125070000D01*
X153030000Y-125070000D02*
X152700000Y-125400000D01*
X153030000Y-117110000D02*
X123080000Y-117110000D01*
X123080000Y-117110000D02*
X121180000Y-119010000D01*
X121180000Y-119010000D02*
X109590000Y-119010000D01*
X109590000Y-119010000D02*
X105156000Y-123444000D01*
X97100000Y-126350000D02*
X97100000Y-125808000D01*
X97100000Y-125808000D02*
X99464000Y-123444000D01*
X112050000Y-131379200D02*
X112050000Y-130084000D01*
X99464000Y-123444000D02*
X96980000Y-120960000D01*
X105410000Y-123444000D02*
X105156000Y-123444000D01*
X105156000Y-123444000D02*
X99464000Y-123444000D01*
X112050000Y-130084000D02*
X105410000Y-123444000D01*
D27*
X92760000Y-108050000D02*
X92760000Y-111456000D01*
X112432000Y-116586000D02*
X116160000Y-112858000D01*
X93218000Y-116586000D02*
X112432000Y-116586000D01*
X91694000Y-115062000D02*
X93218000Y-116586000D01*
X91694000Y-112522000D02*
X91694000Y-115062000D01*
X92760000Y-111456000D02*
X91694000Y-112522000D01*
X92760000Y-108050000D02*
X90016000Y-108050000D01*
X99665200Y-86360000D02*
X102906000Y-83119200D01*
X84328000Y-86360000D02*
X99665200Y-86360000D01*
X83312000Y-87376000D02*
X84328000Y-86360000D01*
X83312000Y-100330000D02*
X83312000Y-87376000D01*
X86868000Y-103886000D02*
X83312000Y-100330000D01*
X88392000Y-106426000D02*
X88392000Y-106172000D01*
X90016000Y-108050000D02*
X88392000Y-106426000D01*
X116160000Y-106200000D02*
X116160000Y-112858000D01*
X138390000Y-114808000D02*
X144760000Y-108438000D01*
X116160000Y-112858000D02*
X118110000Y-114808000D01*
X118110000Y-114808000D02*
X138390000Y-114808000D01*
X178900000Y-123530000D02*
X175854000Y-123530000D01*
X144760000Y-108438000D02*
X144760000Y-104400000D01*
X148844000Y-112522000D02*
X144760000Y-108438000D01*
X152400000Y-112522000D02*
X148844000Y-112522000D01*
X157226000Y-117348000D02*
X152400000Y-112522000D01*
X170942000Y-117348000D02*
X157226000Y-117348000D01*
X172212000Y-118618000D02*
X170942000Y-117348000D01*
X172212000Y-119888000D02*
X172212000Y-118618000D01*
X175854000Y-123530000D02*
X172212000Y-119888000D01*
D29*
X154920000Y-91700000D02*
X154920000Y-91561600D01*
X154920000Y-91561600D02*
X161620200Y-84861400D01*
X161620200Y-84861400D02*
X161620200Y-81178400D01*
X161620200Y-81178400D02*
X164490400Y-78308200D01*
X164490400Y-78308200D02*
X164490400Y-76682600D01*
X164490400Y-76682600D02*
X166647000Y-74526000D01*
X166647000Y-74526000D02*
X167224000Y-74526000D01*
X157460000Y-91700000D02*
X157931200Y-91700000D01*
X157931200Y-91700000D02*
X164084000Y-85547200D01*
X164084000Y-85547200D02*
X165633400Y-85547200D01*
X165633400Y-85547200D02*
X166624000Y-84556600D01*
X166624000Y-84556600D02*
X166624000Y-78136000D01*
X166624000Y-78136000D02*
X165854000Y-77366000D01*
X100380000Y-95350000D02*
X100458600Y-95350000D01*
X100458600Y-95350000D02*
X104622600Y-91186000D01*
X104622600Y-91186000D02*
X113157000Y-91186000D01*
X113157000Y-91186000D02*
X115671600Y-88671400D01*
X115671600Y-88671400D02*
X120218200Y-88671400D01*
X120218200Y-88671400D02*
X123444000Y-85445600D01*
X123444000Y-85445600D02*
X123444000Y-81940400D01*
X123444000Y-81940400D02*
X125374400Y-80010000D01*
X125374400Y-80010000D02*
X136525000Y-80010000D01*
X136525000Y-80010000D02*
X139217400Y-77317600D01*
X139217400Y-77317600D02*
X139217400Y-75234800D01*
X139217400Y-75234800D02*
X141198600Y-73253600D01*
X141198600Y-73253600D02*
X145796000Y-73253600D01*
X145796000Y-73253600D02*
X148412200Y-75869800D01*
X148412200Y-75869800D02*
X152180200Y-75869800D01*
X152180200Y-75869800D02*
X153524000Y-74526000D01*
X97840000Y-95350000D02*
X98325000Y-95350000D01*
X98325000Y-95350000D02*
X103378000Y-90297000D01*
X103378000Y-90297000D02*
X112623600Y-90297000D01*
X112623600Y-90297000D02*
X117602000Y-85318600D01*
X117602000Y-85318600D02*
X117602000Y-82016600D01*
X117602000Y-82016600D02*
X120319802Y-79298798D01*
X120319802Y-79298798D02*
X135813802Y-79298798D01*
X135813802Y-79298798D02*
X138303000Y-76809600D01*
X138303000Y-76809600D02*
X138303000Y-74193400D01*
X138303000Y-74193400D02*
X141020800Y-71475600D01*
X141020800Y-71475600D02*
X147733600Y-71475600D01*
X147733600Y-71475600D02*
X150784000Y-74526000D01*
X102920000Y-95350000D02*
X102920000Y-95327000D01*
X102920000Y-95327000D02*
X106019600Y-92227400D01*
X106019600Y-92227400D02*
X113461800Y-92227400D01*
X113461800Y-92227400D02*
X115671600Y-90017600D01*
X115671600Y-90017600D02*
X121031000Y-90017600D01*
X121031000Y-90017600D02*
X125907800Y-85140800D01*
X125907800Y-85140800D02*
X127685800Y-85140800D01*
X127685800Y-85140800D02*
X128549400Y-84277200D01*
X128549400Y-84277200D02*
X128549400Y-81864200D01*
X128549400Y-81864200D02*
X129438400Y-80975200D01*
X129438400Y-80975200D02*
X140589000Y-80975200D01*
X140589000Y-80975200D02*
X142875000Y-78689200D01*
X142875000Y-78689200D02*
X148090800Y-78689200D01*
X148090800Y-78689200D02*
X149414000Y-77366000D01*
X146532600Y-79806800D02*
X148056600Y-79806800D01*
X150698200Y-78892400D02*
X152154000Y-77436600D01*
X148971000Y-78892400D02*
X150698200Y-78892400D01*
X148056600Y-79806800D02*
X148971000Y-78892400D01*
X152154000Y-77436600D02*
X152154000Y-77366000D01*
X105460000Y-95350000D02*
X105487800Y-95350000D01*
X105487800Y-95350000D02*
X107569000Y-93268800D01*
X107569000Y-93268800D02*
X113817400Y-93268800D01*
X113817400Y-93268800D02*
X115824000Y-91262200D01*
X115824000Y-91262200D02*
X121285000Y-91262200D01*
X121285000Y-91262200D02*
X126441200Y-86106000D01*
X126441200Y-86106000D02*
X139217400Y-86106000D01*
X139217400Y-86106000D02*
X141020800Y-84302600D01*
X141020800Y-84302600D02*
X141020800Y-81940400D01*
X141020800Y-81940400D02*
X143154400Y-79806800D01*
X143154400Y-79806800D02*
X146532600Y-79806800D01*
X146532600Y-79806800D02*
X146558000Y-79806800D01*
X152380000Y-91700000D02*
X152380000Y-91282200D01*
X152380000Y-91282200D02*
X159029400Y-84632800D01*
X159029400Y-84632800D02*
X159029400Y-81483200D01*
X159029400Y-81483200D02*
X163114000Y-77398600D01*
X163114000Y-77398600D02*
X163114000Y-77366000D01*
X149840000Y-91700000D02*
X149840000Y-91256800D01*
X149840000Y-91256800D02*
X156489400Y-84607400D01*
X156489400Y-84607400D02*
X156489400Y-81229200D01*
X156489400Y-81229200D02*
X159029400Y-78689200D01*
X159029400Y-78689200D02*
X159029400Y-76631800D01*
X159029400Y-76631800D02*
X159842200Y-75819000D01*
X159842200Y-75819000D02*
X163191000Y-75819000D01*
X163191000Y-75819000D02*
X164484000Y-74526000D01*
X126320000Y-93500000D02*
X126320000Y-91942200D01*
X157685600Y-75844400D02*
X159004000Y-74526000D01*
X157200600Y-75844400D02*
X157685600Y-75844400D01*
X156311600Y-76733400D02*
X157200600Y-75844400D01*
X156311600Y-78359000D02*
X156311600Y-76733400D01*
X154178000Y-80492600D02*
X156311600Y-78359000D01*
X152730200Y-80492600D02*
X154178000Y-80492600D01*
X151409400Y-81813400D02*
X152730200Y-80492600D01*
X151409400Y-85344000D02*
X151409400Y-81813400D01*
X149479000Y-87274400D02*
X151409400Y-85344000D01*
X144094200Y-87274400D02*
X149479000Y-87274400D01*
X141732000Y-89636600D02*
X144094200Y-87274400D01*
X128625600Y-89636600D02*
X141732000Y-89636600D01*
X126320000Y-91942200D02*
X128625600Y-89636600D01*
X128860000Y-93500000D02*
X128860000Y-93186800D01*
X128860000Y-93186800D02*
X131216400Y-90830400D01*
X131216400Y-90830400D02*
X142189200Y-90830400D01*
X142189200Y-90830400D02*
X144475200Y-88544400D01*
X144475200Y-88544400D02*
X150088600Y-88544400D01*
X150088600Y-88544400D02*
X153949400Y-84683600D01*
X153949400Y-84683600D02*
X153949400Y-81788000D01*
X153949400Y-81788000D02*
X156057600Y-79679800D01*
X156057600Y-79679800D02*
X156616400Y-79679800D01*
X156616400Y-79679800D02*
X157634000Y-78662200D01*
X157634000Y-78662200D02*
X157634000Y-77366000D01*
X151536400Y-80543400D02*
X152323800Y-79756000D01*
X123780000Y-92221600D02*
X127787400Y-88214200D01*
X127787400Y-88214200D02*
X142036800Y-88214200D01*
X142036800Y-88214200D02*
X144272000Y-85979000D01*
X144272000Y-85979000D02*
X147548600Y-85979000D01*
X147548600Y-85979000D02*
X148894800Y-84632800D01*
X148894800Y-84632800D02*
X148894800Y-81584800D01*
X148894800Y-81584800D02*
X149936200Y-80543400D01*
X149936200Y-80543400D02*
X151536400Y-80543400D01*
X123780000Y-93500000D02*
X123780000Y-92221600D01*
X154894000Y-78557400D02*
X154894000Y-77366000D01*
X153695400Y-79756000D02*
X154894000Y-78557400D01*
X152323800Y-79756000D02*
X153695400Y-79756000D01*
X148539200Y-80695800D02*
X148666200Y-80695800D01*
X144881600Y-80695800D02*
X148539200Y-80695800D01*
X143840200Y-81737200D02*
X144881600Y-80695800D01*
X143840200Y-84988400D02*
X143840200Y-81737200D01*
X141554200Y-87274400D02*
X143840200Y-84988400D01*
X126568200Y-87274400D02*
X141554200Y-87274400D01*
X121240000Y-92602600D02*
X126568200Y-87274400D01*
X152895300Y-78841600D02*
X153441400Y-78257400D01*
X153441400Y-78257400D02*
X153441400Y-76911200D01*
X153441400Y-76911200D02*
X154559000Y-75793600D01*
X154559000Y-75793600D02*
X154996400Y-75793600D01*
X154996400Y-75793600D02*
X156264000Y-74526000D01*
X152895300Y-78839943D02*
X152895300Y-78841600D01*
X152919043Y-78816200D02*
X152895300Y-78839943D01*
X152247600Y-78816200D02*
X152919043Y-78816200D01*
X151257000Y-79806800D02*
X152247600Y-78816200D01*
X149555200Y-79806800D02*
X151257000Y-79806800D01*
X148666200Y-80695800D02*
X149555200Y-79806800D01*
X121240000Y-93500000D02*
X121240000Y-92602600D01*
D27*
X160000000Y-104400000D02*
X160000000Y-102128000D01*
X168402000Y-89408000D02*
X169733200Y-90739200D01*
X166370000Y-89408000D02*
X168402000Y-89408000D01*
X165608000Y-90170000D02*
X166370000Y-89408000D01*
X165608000Y-96520000D02*
X165608000Y-90170000D01*
X160000000Y-102128000D02*
X165608000Y-96520000D01*
X169733200Y-90739200D02*
X170470000Y-90739200D01*
X131400000Y-106200000D02*
X131544000Y-106200000D01*
X131544000Y-106200000D02*
X136144000Y-101600000D01*
X136144000Y-101600000D02*
X157734000Y-101600000D01*
X157734000Y-101600000D02*
X159766000Y-99568000D01*
X159766000Y-99568000D02*
X161290000Y-99568000D01*
X161290000Y-99568000D02*
X164338000Y-96520000D01*
X166370000Y-94742000D02*
X167832800Y-93279200D01*
X167832800Y-93279200D02*
X167930000Y-93279200D01*
X108000000Y-108050000D02*
X108000000Y-107900000D01*
X108000000Y-107900000D02*
X112268000Y-103632000D01*
X112268000Y-103632000D02*
X131826000Y-103632000D01*
X131826000Y-103632000D02*
X135382000Y-100076000D01*
X135382000Y-100076000D02*
X157988000Y-100076000D01*
X157988000Y-100076000D02*
X164592000Y-93472000D01*
X166370000Y-91948000D02*
X168148000Y-91948000D01*
X168148000Y-91948000D02*
X168402000Y-91948000D01*
X168402000Y-91948000D02*
X169733200Y-93279200D01*
X169733200Y-93279200D02*
X170470000Y-93279200D01*
X162540000Y-104400000D02*
X162540000Y-100858000D01*
X168402000Y-97028000D02*
X169733200Y-98359200D01*
X166370000Y-97028000D02*
X168402000Y-97028000D01*
X162540000Y-100858000D02*
X166370000Y-97028000D01*
X169733200Y-98359200D02*
X170470000Y-98359200D01*
X167930000Y-100899200D02*
X165038800Y-100899200D01*
X137524000Y-102616000D02*
X133940000Y-106200000D01*
X158242000Y-102616000D02*
X137524000Y-102616000D01*
X158750000Y-102108000D02*
X158242000Y-102616000D01*
X165038800Y-100899200D02*
X163830000Y-102108000D01*
X110540000Y-108050000D02*
X111152000Y-108050000D01*
X111152000Y-108050000D02*
X114808000Y-104394000D01*
X114808000Y-104394000D02*
X132080000Y-104394000D01*
X132080000Y-104394000D02*
X135636000Y-100838000D01*
X135636000Y-100838000D02*
X156972000Y-100838000D01*
X165250000Y-127912000D02*
X165354000Y-128016000D01*
X165250000Y-127912000D02*
X165250000Y-126100000D01*
X167132000Y-127982000D02*
X171670000Y-127982000D01*
X172466000Y-125755200D02*
X170470000Y-123759200D01*
X172466000Y-127186000D02*
X172466000Y-125755200D01*
X171670000Y-127982000D02*
X172466000Y-127186000D01*
X170470000Y-123759200D02*
X170372800Y-123759200D01*
X160180000Y-137380000D02*
X161832000Y-137380000D01*
X167132000Y-127982000D02*
X165250000Y-126100000D01*
X167132000Y-132080000D02*
X167132000Y-127982000D01*
X161832000Y-137380000D02*
X167132000Y-132080000D01*
X133604000Y-70104000D02*
X133604000Y-70866000D01*
X133604000Y-70866000D02*
X125755400Y-78714600D01*
X125755400Y-78714600D02*
X114930600Y-78714600D01*
X114930600Y-78714600D02*
X110526000Y-83119200D01*
X110526000Y-83119200D02*
X110526000Y-85726000D01*
X110526000Y-85726000D02*
X110750000Y-85950000D01*
X166624000Y-122936000D02*
X165760000Y-123800000D01*
X165760000Y-123800000D02*
X165200000Y-123800000D01*
X154700000Y-137380000D02*
X155414000Y-137380000D01*
X155414000Y-137380000D02*
X156972000Y-138938000D01*
X169007200Y-122682000D02*
X167930000Y-123759200D01*
X172212000Y-122682000D02*
X169007200Y-122682000D01*
X173228000Y-123698000D02*
X172212000Y-122682000D01*
X173228000Y-133096000D02*
X173228000Y-123698000D01*
X172212000Y-134112000D02*
X173228000Y-133096000D01*
X167386000Y-134112000D02*
X172212000Y-134112000D01*
X162560000Y-138938000D02*
X167386000Y-134112000D01*
X156972000Y-138938000D02*
X162560000Y-138938000D01*
X165200000Y-123800000D02*
X167889200Y-123800000D01*
X167889200Y-123800000D02*
X167930000Y-123759200D01*
X154700000Y-137380000D02*
X154720000Y-137380000D01*
X106680000Y-77366000D02*
X106680000Y-81813200D01*
X106680000Y-81813200D02*
X107986000Y-83119200D01*
X107986000Y-83119200D02*
X107986000Y-85886000D01*
X107986000Y-85886000D02*
X108000000Y-85900000D01*
X165350000Y-121350000D02*
X165350000Y-119638000D01*
X165350000Y-119638000D02*
X165354000Y-119634000D01*
X150590000Y-140220000D02*
X150590000Y-140684000D01*
X150590000Y-140684000D02*
X152908000Y-143002000D01*
X171511200Y-121219200D02*
X170470000Y-121219200D01*
X173990000Y-123698000D02*
X171511200Y-121219200D01*
X173990000Y-138176000D02*
X173990000Y-123698000D01*
X169164000Y-143002000D02*
X173990000Y-138176000D01*
X152908000Y-143002000D02*
X169164000Y-143002000D01*
X165350000Y-121350000D02*
X165924000Y-121350000D01*
X165924000Y-121350000D02*
X167132000Y-120142000D01*
X167132000Y-120142000D02*
X169392800Y-120142000D01*
X169392800Y-120142000D02*
X170470000Y-121219200D01*
X150590000Y-140220000D02*
X151118000Y-140220000D01*
X105446000Y-83119200D02*
X105446000Y-85846000D01*
X105446000Y-85846000D02*
X105500000Y-85900000D01*
X102570000Y-74526000D02*
X102570000Y-78694000D01*
X105446000Y-81570000D02*
X105446000Y-83119200D01*
X102570000Y-78694000D02*
X105446000Y-81570000D01*
X152690000Y-131379200D02*
X152690000Y-128110000D01*
X152690000Y-128110000D02*
X152700000Y-128100000D01*
X115570000Y-144018000D02*
X117094000Y-144018000D01*
X152690000Y-133568000D02*
X152690000Y-131379200D01*
X151384000Y-134874000D02*
X152690000Y-133568000D01*
X134620000Y-134874000D02*
X151384000Y-134874000D01*
X129286000Y-140208000D02*
X134620000Y-134874000D01*
X120904000Y-140208000D02*
X129286000Y-140208000D01*
X117094000Y-144018000D02*
X120904000Y-140208000D01*
X150150000Y-131379200D02*
X150150000Y-128150000D01*
X150150000Y-128150000D02*
X150100000Y-128100000D01*
X105410000Y-144018000D02*
X105410000Y-142240000D01*
X150150000Y-133314000D02*
X150150000Y-131379200D01*
X149098000Y-134366000D02*
X150150000Y-133314000D01*
X134366000Y-134366000D02*
X149098000Y-134366000D01*
X129540000Y-139192000D02*
X134366000Y-134366000D01*
X120650000Y-139192000D02*
X129540000Y-139192000D01*
X118618000Y-141224000D02*
X120650000Y-139192000D01*
X106426000Y-141224000D02*
X118618000Y-141224000D01*
X105410000Y-142240000D02*
X106426000Y-141224000D01*
X155230000Y-131379200D02*
X155230000Y-128120000D01*
X155230000Y-128120000D02*
X155250000Y-128100000D01*
X125730000Y-144018000D02*
X126746000Y-144018000D01*
X126746000Y-144018000D02*
X134874000Y-135890000D01*
X134874000Y-135890000D02*
X152146000Y-135890000D01*
X152146000Y-135890000D02*
X155230000Y-132806000D01*
X155230000Y-132806000D02*
X155230000Y-131379200D01*
X147600000Y-128100000D02*
X147600000Y-131369200D01*
X147600000Y-131369200D02*
X147610000Y-131379200D01*
X95250000Y-144018000D02*
X95250000Y-142240000D01*
X145639200Y-133350000D02*
X147610000Y-131379200D01*
X134366000Y-133350000D02*
X145639200Y-133350000D01*
X129540000Y-138176000D02*
X134366000Y-133350000D01*
X120396000Y-138176000D02*
X129540000Y-138176000D01*
X118872000Y-139700000D02*
X120396000Y-138176000D01*
X97790000Y-139700000D02*
X118872000Y-139700000D01*
X95250000Y-142240000D02*
X97790000Y-139700000D01*
X99800000Y-126350000D02*
X99800000Y-129502115D01*
X99800000Y-129502115D02*
X99427115Y-129875000D01*
X85772000Y-92202000D02*
X85772000Y-89708980D01*
X85772000Y-89708980D02*
X86072980Y-89408000D01*
D26*
X85772000Y-89708980D02*
X86072980Y-89408000D01*
D27*
X178900000Y-98130000D02*
X178900000Y-96604000D01*
X169138800Y-89408000D02*
X167930000Y-88199200D01*
X171704000Y-89408000D02*
X169138800Y-89408000D01*
X178900000Y-96604000D02*
X171704000Y-89408000D01*
X178900000Y-113370000D02*
X178900000Y-112352000D01*
X178900000Y-112352000D02*
X175514000Y-108966000D01*
X175514000Y-108966000D02*
X175514000Y-101346000D01*
X175514000Y-101346000D02*
X173736000Y-99568000D01*
X173736000Y-99568000D02*
X173736000Y-97790000D01*
X173736000Y-97790000D02*
X172974000Y-97028000D01*
X172974000Y-97028000D02*
X169138800Y-97028000D01*
X169138800Y-97028000D02*
X167930000Y-95819200D01*
X178900000Y-93050000D02*
X177886000Y-93050000D01*
X177886000Y-93050000D02*
X173035200Y-88199200D01*
X173035200Y-88199200D02*
X170470000Y-88199200D01*
X178900000Y-108290000D02*
X178900000Y-106764000D01*
X173797200Y-95819200D02*
X170470000Y-95819200D01*
X175260000Y-97282000D02*
X173797200Y-95819200D01*
X175260000Y-99314000D02*
X175260000Y-97282000D01*
X176530000Y-100584000D02*
X175260000Y-99314000D01*
X176530000Y-104394000D02*
X176530000Y-100584000D01*
X178900000Y-106764000D02*
X176530000Y-104394000D01*
X178900000Y-103210000D02*
X178900000Y-101430000D01*
X169138800Y-91948000D02*
X167930000Y-90739200D01*
X171450000Y-91948000D02*
X169138800Y-91948000D01*
X176276000Y-96774000D02*
X171450000Y-91948000D01*
X176276000Y-98806000D02*
X176276000Y-96774000D01*
X178900000Y-101430000D02*
X176276000Y-98806000D01*
X178900000Y-118450000D02*
X178900000Y-116670000D01*
X169138800Y-99568000D02*
X167930000Y-98359200D01*
X171958000Y-99568000D02*
X169138800Y-99568000D01*
X173990000Y-101600000D02*
X171958000Y-99568000D01*
X173990000Y-111760000D02*
X173990000Y-101600000D01*
X178900000Y-116670000D02*
X173990000Y-111760000D01*
X154920000Y-104400000D02*
X154920000Y-106152000D01*
X157460000Y-106446000D02*
X157460000Y-104400000D01*
X156972000Y-106934000D02*
X157460000Y-106446000D01*
X155702000Y-106934000D02*
X156972000Y-106934000D01*
X154920000Y-106152000D02*
X155702000Y-106934000D01*
X126320000Y-106200000D02*
X126320000Y-108286000D01*
X128860000Y-108630000D02*
X128860000Y-106200000D01*
X128270000Y-109220000D02*
X128860000Y-108630000D01*
X127254000Y-109220000D02*
X128270000Y-109220000D01*
X126320000Y-108286000D02*
X127254000Y-109220000D01*
X102920000Y-108050000D02*
X102920000Y-110286000D01*
X105460000Y-110186000D02*
X105460000Y-108050000D01*
X104648000Y-110998000D02*
X105460000Y-110186000D01*
X103632000Y-110998000D02*
X104648000Y-110998000D01*
X102920000Y-110286000D02*
X103632000Y-110998000D01*
X152380000Y-104400000D02*
X152380000Y-106300000D01*
X152380000Y-106300000D02*
X155570000Y-109490000D01*
X153030000Y-109490000D02*
X153030000Y-108580000D01*
X153030000Y-108580000D02*
X149840000Y-105390000D01*
X149840000Y-105390000D02*
X149840000Y-104400000D01*
X150490000Y-109490000D02*
X150490000Y-108834000D01*
X150490000Y-108834000D02*
X147300000Y-105644000D01*
X147300000Y-105644000D02*
X147300000Y-104400000D01*
X123780000Y-106200000D02*
X123780000Y-111330000D01*
X123780000Y-111330000D02*
X123720000Y-111390000D01*
X121240000Y-106200000D02*
X121240000Y-111330000D01*
X121240000Y-111330000D02*
X121180000Y-111390000D01*
X118700000Y-106200000D02*
X118700000Y-111330000D01*
X118700000Y-111330000D02*
X118640000Y-111390000D01*
X100380000Y-108050000D02*
X100380000Y-112480000D01*
X100380000Y-112480000D02*
X99520000Y-113340000D01*
X97840000Y-108050000D02*
X97840000Y-112480000D01*
X97840000Y-112480000D02*
X96980000Y-113340000D01*
X95300000Y-108050000D02*
X95300000Y-112480000D01*
X95300000Y-112480000D02*
X94440000Y-113340000D01*
M02*
