G04 #@! TF.FileFunction,Legend,Bot*
%FSLAX46Y46*%
G04 Gerber Fmt 4.6, Leading zero omitted, Abs format (unit mm)*
G04 Created by KiCad (PCBNEW 4.0.5) date Wednesday, August 30, 2017 'PMt' 12:57:39 PM*
%MOMM*%
%LPD*%
G01*
G04 APERTURE LIST*
%ADD10C,0.100000*%
%ADD11C,0.300000*%
%ADD12C,0.150000*%
%ADD13R,1.900000X1.650000*%
%ADD14R,1.650000X1.900000*%
%ADD15C,1.700000*%
%ADD16R,1.700000X1.700000*%
%ADD17O,1.924000X2.940000*%
%ADD18C,4.337000*%
%ADD19C,1.924000*%
%ADD20O,2.127200X2.432000*%
%ADD21R,2.127200X2.432000*%
%ADD22O,2.940000X2.940000*%
%ADD23R,2.940000X2.940000*%
%ADD24C,4.262000*%
%ADD25R,1.924000X1.924000*%
G04 APERTURE END LIST*
D10*
D11*
X77898571Y-98586001D02*
X77898571Y-98300287D01*
X77970000Y-98157430D01*
X78041429Y-98086001D01*
X78255714Y-97943144D01*
X78541429Y-97871715D01*
X79112857Y-97871715D01*
X79255714Y-97943144D01*
X79327143Y-98014572D01*
X79398571Y-98157430D01*
X79398571Y-98443144D01*
X79327143Y-98586001D01*
X79255714Y-98657430D01*
X79112857Y-98728858D01*
X78755714Y-98728858D01*
X78612857Y-98657430D01*
X78541429Y-98586001D01*
X78470000Y-98443144D01*
X78470000Y-98157430D01*
X78541429Y-98014572D01*
X78612857Y-97943144D01*
X78755714Y-97871715D01*
X78827143Y-99371715D02*
X78827143Y-100514572D01*
X78970000Y-101157429D02*
X78970000Y-101871715D01*
X79398571Y-101014572D02*
X77898571Y-101514572D01*
X79398571Y-102014572D01*
X79398571Y-102371715D02*
X78398571Y-103157429D01*
X78398571Y-102371715D02*
X79398571Y-103157429D01*
X79398571Y-103728858D02*
X78398571Y-103728858D01*
X77898571Y-103728858D02*
X77970000Y-103657429D01*
X78041429Y-103728858D01*
X77970000Y-103800286D01*
X77898571Y-103728858D01*
X78041429Y-103728858D01*
X79327143Y-104371715D02*
X79398571Y-104514572D01*
X79398571Y-104800287D01*
X79327143Y-104943144D01*
X79184286Y-105014572D01*
X79112857Y-105014572D01*
X78970000Y-104943144D01*
X78898571Y-104800287D01*
X78898571Y-104586001D01*
X78827143Y-104443144D01*
X78684286Y-104371715D01*
X78612857Y-104371715D01*
X78470000Y-104443144D01*
X78398571Y-104586001D01*
X78398571Y-104800287D01*
X78470000Y-104943144D01*
X79398571Y-107657430D02*
X78684286Y-107157430D01*
X79398571Y-106800287D02*
X77898571Y-106800287D01*
X77898571Y-107371715D01*
X77970000Y-107514573D01*
X78041429Y-107586001D01*
X78184286Y-107657430D01*
X78398571Y-107657430D01*
X78541429Y-107586001D01*
X78612857Y-107514573D01*
X78684286Y-107371715D01*
X78684286Y-106800287D01*
X79398571Y-108514573D02*
X79327143Y-108371715D01*
X79255714Y-108300287D01*
X79112857Y-108228858D01*
X78684286Y-108228858D01*
X78541429Y-108300287D01*
X78470000Y-108371715D01*
X78398571Y-108514573D01*
X78398571Y-108728858D01*
X78470000Y-108871715D01*
X78541429Y-108943144D01*
X78684286Y-109014573D01*
X79112857Y-109014573D01*
X79255714Y-108943144D01*
X79327143Y-108871715D01*
X79398571Y-108728858D01*
X79398571Y-108514573D01*
X79398571Y-109657430D02*
X77898571Y-109657430D01*
X78470000Y-109657430D02*
X78398571Y-109800287D01*
X78398571Y-110086001D01*
X78470000Y-110228858D01*
X78541429Y-110300287D01*
X78684286Y-110371716D01*
X79112857Y-110371716D01*
X79255714Y-110300287D01*
X79327143Y-110228858D01*
X79398571Y-110086001D01*
X79398571Y-109800287D01*
X79327143Y-109657430D01*
X79398571Y-111228859D02*
X79327143Y-111086001D01*
X79255714Y-111014573D01*
X79112857Y-110943144D01*
X78684286Y-110943144D01*
X78541429Y-111014573D01*
X78470000Y-111086001D01*
X78398571Y-111228859D01*
X78398571Y-111443144D01*
X78470000Y-111586001D01*
X78541429Y-111657430D01*
X78684286Y-111728859D01*
X79112857Y-111728859D01*
X79255714Y-111657430D01*
X79327143Y-111586001D01*
X79398571Y-111443144D01*
X79398571Y-111228859D01*
X78398571Y-112157430D02*
X78398571Y-112728859D01*
X77898571Y-112371716D02*
X79184286Y-112371716D01*
X79327143Y-112443144D01*
X79398571Y-112586002D01*
X79398571Y-112728859D01*
X78970000Y-114300287D02*
X78970000Y-115014573D01*
X79398571Y-114157430D02*
X77898571Y-114657430D01*
X79398571Y-115157430D01*
X79398571Y-115657430D02*
X78398571Y-115657430D01*
X78684286Y-115657430D02*
X78541429Y-115728858D01*
X78470000Y-115800287D01*
X78398571Y-115943144D01*
X78398571Y-116086001D01*
X79398571Y-116586001D02*
X78398571Y-116586001D01*
X78541429Y-116586001D02*
X78470000Y-116657429D01*
X78398571Y-116800287D01*
X78398571Y-117014572D01*
X78470000Y-117157429D01*
X78612857Y-117228858D01*
X79398571Y-117228858D01*
X78612857Y-117228858D02*
X78470000Y-117300287D01*
X78398571Y-117443144D01*
X78398571Y-117657429D01*
X78470000Y-117800287D01*
X78612857Y-117871715D01*
X79398571Y-117871715D01*
X79255714Y-120586001D02*
X79327143Y-120514572D01*
X79398571Y-120300286D01*
X79398571Y-120157429D01*
X79327143Y-119943144D01*
X79184286Y-119800286D01*
X79041429Y-119728858D01*
X78755714Y-119657429D01*
X78541429Y-119657429D01*
X78255714Y-119728858D01*
X78112857Y-119800286D01*
X77970000Y-119943144D01*
X77898571Y-120157429D01*
X77898571Y-120300286D01*
X77970000Y-120514572D01*
X78041429Y-120586001D01*
X79398571Y-121443144D02*
X79327143Y-121300286D01*
X79255714Y-121228858D01*
X79112857Y-121157429D01*
X78684286Y-121157429D01*
X78541429Y-121228858D01*
X78470000Y-121300286D01*
X78398571Y-121443144D01*
X78398571Y-121657429D01*
X78470000Y-121800286D01*
X78541429Y-121871715D01*
X78684286Y-121943144D01*
X79112857Y-121943144D01*
X79255714Y-121871715D01*
X79327143Y-121800286D01*
X79398571Y-121657429D01*
X79398571Y-121443144D01*
X78398571Y-122586001D02*
X79398571Y-122586001D01*
X78541429Y-122586001D02*
X78470000Y-122657429D01*
X78398571Y-122800287D01*
X78398571Y-123014572D01*
X78470000Y-123157429D01*
X78612857Y-123228858D01*
X79398571Y-123228858D01*
X78398571Y-123728858D02*
X78398571Y-124300287D01*
X77898571Y-123943144D02*
X79184286Y-123943144D01*
X79327143Y-124014572D01*
X79398571Y-124157430D01*
X79398571Y-124300287D01*
X79398571Y-124800287D02*
X78398571Y-124800287D01*
X78684286Y-124800287D02*
X78541429Y-124871715D01*
X78470000Y-124943144D01*
X78398571Y-125086001D01*
X78398571Y-125228858D01*
X79398571Y-125943144D02*
X79327143Y-125800286D01*
X79255714Y-125728858D01*
X79112857Y-125657429D01*
X78684286Y-125657429D01*
X78541429Y-125728858D01*
X78470000Y-125800286D01*
X78398571Y-125943144D01*
X78398571Y-126157429D01*
X78470000Y-126300286D01*
X78541429Y-126371715D01*
X78684286Y-126443144D01*
X79112857Y-126443144D01*
X79255714Y-126371715D01*
X79327143Y-126300286D01*
X79398571Y-126157429D01*
X79398571Y-125943144D01*
X79398571Y-127300287D02*
X79327143Y-127157429D01*
X79184286Y-127086001D01*
X77898571Y-127086001D01*
X79327143Y-128943143D02*
X79398571Y-129157429D01*
X79398571Y-129514572D01*
X79327143Y-129657429D01*
X79255714Y-129728858D01*
X79112857Y-129800286D01*
X78970000Y-129800286D01*
X78827143Y-129728858D01*
X78755714Y-129657429D01*
X78684286Y-129514572D01*
X78612857Y-129228858D01*
X78541429Y-129086000D01*
X78470000Y-129014572D01*
X78327143Y-128943143D01*
X78184286Y-128943143D01*
X78041429Y-129014572D01*
X77970000Y-129086000D01*
X77898571Y-129228858D01*
X77898571Y-129586000D01*
X77970000Y-129800286D01*
X79398571Y-130443143D02*
X77898571Y-130443143D01*
X79398571Y-131086000D02*
X78612857Y-131086000D01*
X78470000Y-131014571D01*
X78398571Y-130871714D01*
X78398571Y-130657429D01*
X78470000Y-130514571D01*
X78541429Y-130443143D01*
X79398571Y-131800286D02*
X78398571Y-131800286D01*
X77898571Y-131800286D02*
X77970000Y-131728857D01*
X78041429Y-131800286D01*
X77970000Y-131871714D01*
X77898571Y-131800286D01*
X78041429Y-131800286D01*
X79327143Y-133086000D02*
X79398571Y-132943143D01*
X79398571Y-132657429D01*
X79327143Y-132514572D01*
X79184286Y-132443143D01*
X78612857Y-132443143D01*
X78470000Y-132514572D01*
X78398571Y-132657429D01*
X78398571Y-132943143D01*
X78470000Y-133086000D01*
X78612857Y-133157429D01*
X78755714Y-133157429D01*
X78898571Y-132443143D01*
X79398571Y-134014572D02*
X79327143Y-133871714D01*
X79184286Y-133800286D01*
X77898571Y-133800286D01*
X79398571Y-135228857D02*
X77898571Y-135228857D01*
X79327143Y-135228857D02*
X79398571Y-135086000D01*
X79398571Y-134800286D01*
X79327143Y-134657428D01*
X79255714Y-134586000D01*
X79112857Y-134514571D01*
X78684286Y-134514571D01*
X78541429Y-134586000D01*
X78470000Y-134657428D01*
X78398571Y-134800286D01*
X78398571Y-135086000D01*
X78470000Y-135228857D01*
X81948571Y-109657429D02*
X80448571Y-109657429D01*
X80448571Y-110014572D01*
X80520000Y-110228857D01*
X80662857Y-110371715D01*
X80805714Y-110443143D01*
X81091429Y-110514572D01*
X81305714Y-110514572D01*
X81591429Y-110443143D01*
X81734286Y-110371715D01*
X81877143Y-110228857D01*
X81948571Y-110014572D01*
X81948571Y-109657429D01*
X81877143Y-111728857D02*
X81948571Y-111586000D01*
X81948571Y-111300286D01*
X81877143Y-111157429D01*
X81734286Y-111086000D01*
X81162857Y-111086000D01*
X81020000Y-111157429D01*
X80948571Y-111300286D01*
X80948571Y-111586000D01*
X81020000Y-111728857D01*
X81162857Y-111800286D01*
X81305714Y-111800286D01*
X81448571Y-111086000D01*
X81877143Y-112371714D02*
X81948571Y-112514571D01*
X81948571Y-112800286D01*
X81877143Y-112943143D01*
X81734286Y-113014571D01*
X81662857Y-113014571D01*
X81520000Y-112943143D01*
X81448571Y-112800286D01*
X81448571Y-112586000D01*
X81377143Y-112443143D01*
X81234286Y-112371714D01*
X81162857Y-112371714D01*
X81020000Y-112443143D01*
X80948571Y-112586000D01*
X80948571Y-112800286D01*
X81020000Y-112943143D01*
X81948571Y-113657429D02*
X80948571Y-113657429D01*
X80448571Y-113657429D02*
X80520000Y-113586000D01*
X80591429Y-113657429D01*
X80520000Y-113728857D01*
X80448571Y-113657429D01*
X80591429Y-113657429D01*
X80948571Y-115014572D02*
X82162857Y-115014572D01*
X82305714Y-114943143D01*
X82377143Y-114871715D01*
X82448571Y-114728858D01*
X82448571Y-114514572D01*
X82377143Y-114371715D01*
X81877143Y-115014572D02*
X81948571Y-114871715D01*
X81948571Y-114586001D01*
X81877143Y-114443143D01*
X81805714Y-114371715D01*
X81662857Y-114300286D01*
X81234286Y-114300286D01*
X81091429Y-114371715D01*
X81020000Y-114443143D01*
X80948571Y-114586001D01*
X80948571Y-114871715D01*
X81020000Y-115014572D01*
X80948571Y-115728858D02*
X81948571Y-115728858D01*
X81091429Y-115728858D02*
X81020000Y-115800286D01*
X80948571Y-115943144D01*
X80948571Y-116157429D01*
X81020000Y-116300286D01*
X81162857Y-116371715D01*
X81948571Y-116371715D01*
X81877143Y-117657429D02*
X81948571Y-117514572D01*
X81948571Y-117228858D01*
X81877143Y-117086001D01*
X81734286Y-117014572D01*
X81162857Y-117014572D01*
X81020000Y-117086001D01*
X80948571Y-117228858D01*
X80948571Y-117514572D01*
X81020000Y-117657429D01*
X81162857Y-117728858D01*
X81305714Y-117728858D01*
X81448571Y-117014572D01*
X81948571Y-119014572D02*
X80448571Y-119014572D01*
X81877143Y-119014572D02*
X81948571Y-118871715D01*
X81948571Y-118586001D01*
X81877143Y-118443143D01*
X81805714Y-118371715D01*
X81662857Y-118300286D01*
X81234286Y-118300286D01*
X81091429Y-118371715D01*
X81020000Y-118443143D01*
X80948571Y-118586001D01*
X80948571Y-118871715D01*
X81020000Y-119014572D01*
X81162857Y-121371715D02*
X81234286Y-121586001D01*
X81305714Y-121657429D01*
X81448571Y-121728858D01*
X81662857Y-121728858D01*
X81805714Y-121657429D01*
X81877143Y-121586001D01*
X81948571Y-121443143D01*
X81948571Y-120871715D01*
X80448571Y-120871715D01*
X80448571Y-121371715D01*
X80520000Y-121514572D01*
X80591429Y-121586001D01*
X80734286Y-121657429D01*
X80877143Y-121657429D01*
X81020000Y-121586001D01*
X81091429Y-121514572D01*
X81162857Y-121371715D01*
X81162857Y-120871715D01*
X80948571Y-122228858D02*
X81948571Y-122586001D01*
X80948571Y-122943143D02*
X81948571Y-122586001D01*
X82305714Y-122443143D01*
X82377143Y-122371715D01*
X82448571Y-122228858D01*
X81805714Y-123514572D02*
X81877143Y-123586000D01*
X81948571Y-123514572D01*
X81877143Y-123443143D01*
X81805714Y-123514572D01*
X81948571Y-123514572D01*
X81020000Y-123514572D02*
X81091429Y-123586000D01*
X81162857Y-123514572D01*
X81091429Y-123443143D01*
X81020000Y-123514572D01*
X81162857Y-123514572D01*
X84070000Y-111443143D02*
X84070000Y-112157429D01*
X84498571Y-111300286D02*
X82998571Y-111800286D01*
X84498571Y-112300286D01*
X84498571Y-113014572D02*
X84427143Y-112871714D01*
X84284286Y-112800286D01*
X82998571Y-112800286D01*
X84498571Y-114228857D02*
X83712857Y-114228857D01*
X83570000Y-114157428D01*
X83498571Y-114014571D01*
X83498571Y-113728857D01*
X83570000Y-113586000D01*
X84427143Y-114228857D02*
X84498571Y-114086000D01*
X84498571Y-113728857D01*
X84427143Y-113586000D01*
X84284286Y-113514571D01*
X84141429Y-113514571D01*
X83998571Y-113586000D01*
X83927143Y-113728857D01*
X83927143Y-114086000D01*
X83855714Y-114228857D01*
X83498571Y-114943143D02*
X84498571Y-114943143D01*
X83641429Y-114943143D02*
X83570000Y-115014571D01*
X83498571Y-115157429D01*
X83498571Y-115371714D01*
X83570000Y-115514571D01*
X83712857Y-115586000D01*
X84498571Y-115586000D01*
X83712857Y-117943143D02*
X83712857Y-117443143D01*
X84498571Y-117443143D02*
X82998571Y-117443143D01*
X82998571Y-118157429D01*
X84498571Y-118943143D02*
X84427143Y-118800285D01*
X84355714Y-118728857D01*
X84212857Y-118657428D01*
X83784286Y-118657428D01*
X83641429Y-118728857D01*
X83570000Y-118800285D01*
X83498571Y-118943143D01*
X83498571Y-119157428D01*
X83570000Y-119300285D01*
X83641429Y-119371714D01*
X83784286Y-119443143D01*
X84212857Y-119443143D01*
X84355714Y-119371714D01*
X84427143Y-119300285D01*
X84498571Y-119157428D01*
X84498571Y-118943143D01*
X84498571Y-120086000D02*
X83498571Y-120086000D01*
X83784286Y-120086000D02*
X83641429Y-120157428D01*
X83570000Y-120228857D01*
X83498571Y-120371714D01*
X83498571Y-120514571D01*
X84498571Y-121657428D02*
X82998571Y-121657428D01*
X84427143Y-121657428D02*
X84498571Y-121514571D01*
X84498571Y-121228857D01*
X84427143Y-121085999D01*
X84355714Y-121014571D01*
X84212857Y-120943142D01*
X83784286Y-120943142D01*
X83641429Y-121014571D01*
X83570000Y-121085999D01*
X83498571Y-121228857D01*
X83498571Y-121514571D01*
X83570000Y-121657428D01*
X87048571Y-110193143D02*
X85548571Y-110193143D01*
X85548571Y-110550286D01*
X85620000Y-110764571D01*
X85762857Y-110907429D01*
X85905714Y-110978857D01*
X86191429Y-111050286D01*
X86405714Y-111050286D01*
X86691429Y-110978857D01*
X86834286Y-110907429D01*
X86977143Y-110764571D01*
X87048571Y-110550286D01*
X87048571Y-110193143D01*
X87048571Y-112336000D02*
X86262857Y-112336000D01*
X86120000Y-112264571D01*
X86048571Y-112121714D01*
X86048571Y-111836000D01*
X86120000Y-111693143D01*
X86977143Y-112336000D02*
X87048571Y-112193143D01*
X87048571Y-111836000D01*
X86977143Y-111693143D01*
X86834286Y-111621714D01*
X86691429Y-111621714D01*
X86548571Y-111693143D01*
X86477143Y-111836000D01*
X86477143Y-112193143D01*
X86405714Y-112336000D01*
X86048571Y-112907429D02*
X87048571Y-113264572D01*
X86048571Y-113621714D01*
X87048571Y-114193143D02*
X86048571Y-114193143D01*
X85548571Y-114193143D02*
X85620000Y-114121714D01*
X85691429Y-114193143D01*
X85620000Y-114264571D01*
X85548571Y-114193143D01*
X85691429Y-114193143D01*
X87048571Y-115550286D02*
X85548571Y-115550286D01*
X86977143Y-115550286D02*
X87048571Y-115407429D01*
X87048571Y-115121715D01*
X86977143Y-114978857D01*
X86905714Y-114907429D01*
X86762857Y-114836000D01*
X86334286Y-114836000D01*
X86191429Y-114907429D01*
X86120000Y-114978857D01*
X86048571Y-115121715D01*
X86048571Y-115407429D01*
X86120000Y-115550286D01*
X86620000Y-117336000D02*
X86620000Y-118050286D01*
X87048571Y-117193143D02*
X85548571Y-117693143D01*
X87048571Y-118193143D01*
X86048571Y-118693143D02*
X87048571Y-118693143D01*
X86191429Y-118693143D02*
X86120000Y-118764571D01*
X86048571Y-118907429D01*
X86048571Y-119121714D01*
X86120000Y-119264571D01*
X86262857Y-119336000D01*
X87048571Y-119336000D01*
X87048571Y-120693143D02*
X85548571Y-120693143D01*
X86977143Y-120693143D02*
X87048571Y-120550286D01*
X87048571Y-120264572D01*
X86977143Y-120121714D01*
X86905714Y-120050286D01*
X86762857Y-119978857D01*
X86334286Y-119978857D01*
X86191429Y-120050286D01*
X86120000Y-120121714D01*
X86048571Y-120264572D01*
X86048571Y-120550286D01*
X86120000Y-120693143D01*
X87048571Y-121407429D02*
X86048571Y-121407429D01*
X86334286Y-121407429D02*
X86191429Y-121478857D01*
X86120000Y-121550286D01*
X86048571Y-121693143D01*
X86048571Y-121836000D01*
X87048571Y-122978857D02*
X86262857Y-122978857D01*
X86120000Y-122907428D01*
X86048571Y-122764571D01*
X86048571Y-122478857D01*
X86120000Y-122336000D01*
X86977143Y-122978857D02*
X87048571Y-122836000D01*
X87048571Y-122478857D01*
X86977143Y-122336000D01*
X86834286Y-122264571D01*
X86691429Y-122264571D01*
X86548571Y-122336000D01*
X86477143Y-122478857D01*
X86477143Y-122836000D01*
X86405714Y-122978857D01*
X88812857Y-110086001D02*
X88884286Y-110300287D01*
X88955714Y-110371715D01*
X89098571Y-110443144D01*
X89312857Y-110443144D01*
X89455714Y-110371715D01*
X89527143Y-110300287D01*
X89598571Y-110157429D01*
X89598571Y-109586001D01*
X88098571Y-109586001D01*
X88098571Y-110086001D01*
X88170000Y-110228858D01*
X88241429Y-110300287D01*
X88384286Y-110371715D01*
X88527143Y-110371715D01*
X88670000Y-110300287D01*
X88741429Y-110228858D01*
X88812857Y-110086001D01*
X88812857Y-109586001D01*
X89598571Y-111086001D02*
X88598571Y-111086001D01*
X88884286Y-111086001D02*
X88741429Y-111157429D01*
X88670000Y-111228858D01*
X88598571Y-111371715D01*
X88598571Y-111514572D01*
X88598571Y-112657429D02*
X89598571Y-112657429D01*
X88598571Y-112014572D02*
X89384286Y-112014572D01*
X89527143Y-112086000D01*
X89598571Y-112228858D01*
X89598571Y-112443143D01*
X89527143Y-112586000D01*
X89455714Y-112657429D01*
X89527143Y-114014572D02*
X89598571Y-113871715D01*
X89598571Y-113586001D01*
X89527143Y-113443143D01*
X89455714Y-113371715D01*
X89312857Y-113300286D01*
X88884286Y-113300286D01*
X88741429Y-113371715D01*
X88670000Y-113443143D01*
X88598571Y-113586001D01*
X88598571Y-113871715D01*
X88670000Y-114014572D01*
X89527143Y-115228857D02*
X89598571Y-115086000D01*
X89598571Y-114800286D01*
X89527143Y-114657429D01*
X89384286Y-114586000D01*
X88812857Y-114586000D01*
X88670000Y-114657429D01*
X88598571Y-114800286D01*
X88598571Y-115086000D01*
X88670000Y-115228857D01*
X88812857Y-115300286D01*
X88955714Y-115300286D01*
X89098571Y-114586000D01*
X89598571Y-117086000D02*
X88098571Y-117086000D01*
X88098571Y-117443143D01*
X88170000Y-117657428D01*
X88312857Y-117800286D01*
X88455714Y-117871714D01*
X88741429Y-117943143D01*
X88955714Y-117943143D01*
X89241429Y-117871714D01*
X89384286Y-117800286D01*
X89527143Y-117657428D01*
X89598571Y-117443143D01*
X89598571Y-117086000D01*
X89598571Y-119228857D02*
X88812857Y-119228857D01*
X88670000Y-119157428D01*
X88598571Y-119014571D01*
X88598571Y-118728857D01*
X88670000Y-118586000D01*
X89527143Y-119228857D02*
X89598571Y-119086000D01*
X89598571Y-118728857D01*
X89527143Y-118586000D01*
X89384286Y-118514571D01*
X89241429Y-118514571D01*
X89098571Y-118586000D01*
X89027143Y-118728857D01*
X89027143Y-119086000D01*
X88955714Y-119228857D01*
X88598571Y-119800286D02*
X89598571Y-120157429D01*
X88598571Y-120514571D01*
X89598571Y-121086000D02*
X88598571Y-121086000D01*
X88098571Y-121086000D02*
X88170000Y-121014571D01*
X88241429Y-121086000D01*
X88170000Y-121157428D01*
X88098571Y-121086000D01*
X88241429Y-121086000D01*
X89527143Y-122371714D02*
X89598571Y-122228857D01*
X89598571Y-121943143D01*
X89527143Y-121800286D01*
X89384286Y-121728857D01*
X88812857Y-121728857D01*
X88670000Y-121800286D01*
X88598571Y-121943143D01*
X88598571Y-122228857D01*
X88670000Y-122371714D01*
X88812857Y-122443143D01*
X88955714Y-122443143D01*
X89098571Y-121728857D01*
X89527143Y-123014571D02*
X89598571Y-123157428D01*
X89598571Y-123443143D01*
X89527143Y-123586000D01*
X89384286Y-123657428D01*
X89312857Y-123657428D01*
X89170000Y-123586000D01*
X89098571Y-123443143D01*
X89098571Y-123228857D01*
X89027143Y-123086000D01*
X88884286Y-123014571D01*
X88812857Y-123014571D01*
X88670000Y-123086000D01*
X88598571Y-123228857D01*
X88598571Y-123443143D01*
X88670000Y-123586000D01*
D12*
X163600000Y-120550000D02*
X164600000Y-120550000D01*
X164600000Y-122250000D02*
X163600000Y-122250000D01*
X163500000Y-122950000D02*
X164500000Y-122950000D01*
X164500000Y-124650000D02*
X163500000Y-124650000D01*
X163500000Y-125250000D02*
X164500000Y-125250000D01*
X164500000Y-126950000D02*
X163500000Y-126950000D01*
X111550000Y-86700000D02*
X111550000Y-87700000D01*
X109850000Y-87700000D02*
X109850000Y-86700000D01*
X106350000Y-86750000D02*
X106350000Y-87750000D01*
X104650000Y-87750000D02*
X104650000Y-86750000D01*
X108900000Y-86650000D02*
X108900000Y-87650000D01*
X107200000Y-87650000D02*
X107200000Y-86650000D01*
X156100000Y-126200000D02*
X156100000Y-127200000D01*
X154400000Y-127200000D02*
X154400000Y-126200000D01*
X153550000Y-126200000D02*
X153550000Y-127200000D01*
X151850000Y-127200000D02*
X151850000Y-126200000D01*
X150900000Y-126200000D02*
X150900000Y-127200000D01*
X149200000Y-127200000D02*
X149200000Y-126200000D01*
X148450000Y-126250000D02*
X148450000Y-127250000D01*
X146750000Y-127250000D02*
X146750000Y-126250000D01*
X160758047Y-121642143D02*
X160805666Y-121689762D01*
X160948523Y-121737381D01*
X161043761Y-121737381D01*
X161186619Y-121689762D01*
X161281857Y-121594524D01*
X161329476Y-121499286D01*
X161377095Y-121308810D01*
X161377095Y-121165952D01*
X161329476Y-120975476D01*
X161281857Y-120880238D01*
X161186619Y-120785000D01*
X161043761Y-120737381D01*
X160948523Y-120737381D01*
X160805666Y-120785000D01*
X160758047Y-120832619D01*
X159805666Y-121737381D02*
X160377095Y-121737381D01*
X160091381Y-121737381D02*
X160091381Y-120737381D01*
X160186619Y-120880238D01*
X160281857Y-120975476D01*
X160377095Y-121023095D01*
X159186619Y-120737381D02*
X159091380Y-120737381D01*
X158996142Y-120785000D01*
X158948523Y-120832619D01*
X158900904Y-120927857D01*
X158853285Y-121118333D01*
X158853285Y-121356429D01*
X158900904Y-121546905D01*
X158948523Y-121642143D01*
X158996142Y-121689762D01*
X159091380Y-121737381D01*
X159186619Y-121737381D01*
X159281857Y-121689762D01*
X159329476Y-121642143D01*
X159377095Y-121546905D01*
X159424714Y-121356429D01*
X159424714Y-121118333D01*
X159377095Y-120927857D01*
X159329476Y-120832619D01*
X159281857Y-120785000D01*
X159186619Y-120737381D01*
X157900904Y-121737381D02*
X158472333Y-121737381D01*
X158186619Y-121737381D02*
X158186619Y-120737381D01*
X158281857Y-120880238D01*
X158377095Y-120975476D01*
X158472333Y-121023095D01*
X160758047Y-124182143D02*
X160805666Y-124229762D01*
X160948523Y-124277381D01*
X161043761Y-124277381D01*
X161186619Y-124229762D01*
X161281857Y-124134524D01*
X161329476Y-124039286D01*
X161377095Y-123848810D01*
X161377095Y-123705952D01*
X161329476Y-123515476D01*
X161281857Y-123420238D01*
X161186619Y-123325000D01*
X161043761Y-123277381D01*
X160948523Y-123277381D01*
X160805666Y-123325000D01*
X160758047Y-123372619D01*
X159805666Y-124277381D02*
X160377095Y-124277381D01*
X160091381Y-124277381D02*
X160091381Y-123277381D01*
X160186619Y-123420238D01*
X160281857Y-123515476D01*
X160377095Y-123563095D01*
X159186619Y-123277381D02*
X159091380Y-123277381D01*
X158996142Y-123325000D01*
X158948523Y-123372619D01*
X158900904Y-123467857D01*
X158853285Y-123658333D01*
X158853285Y-123896429D01*
X158900904Y-124086905D01*
X158948523Y-124182143D01*
X158996142Y-124229762D01*
X159091380Y-124277381D01*
X159186619Y-124277381D01*
X159281857Y-124229762D01*
X159329476Y-124182143D01*
X159377095Y-124086905D01*
X159424714Y-123896429D01*
X159424714Y-123658333D01*
X159377095Y-123467857D01*
X159329476Y-123372619D01*
X159281857Y-123325000D01*
X159186619Y-123277381D01*
X158472333Y-123372619D02*
X158424714Y-123325000D01*
X158329476Y-123277381D01*
X158091380Y-123277381D01*
X157996142Y-123325000D01*
X157948523Y-123372619D01*
X157900904Y-123467857D01*
X157900904Y-123563095D01*
X157948523Y-123705952D01*
X158519952Y-124277381D01*
X157900904Y-124277381D01*
X160758047Y-126468143D02*
X160805666Y-126515762D01*
X160948523Y-126563381D01*
X161043761Y-126563381D01*
X161186619Y-126515762D01*
X161281857Y-126420524D01*
X161329476Y-126325286D01*
X161377095Y-126134810D01*
X161377095Y-125991952D01*
X161329476Y-125801476D01*
X161281857Y-125706238D01*
X161186619Y-125611000D01*
X161043761Y-125563381D01*
X160948523Y-125563381D01*
X160805666Y-125611000D01*
X160758047Y-125658619D01*
X159805666Y-126563381D02*
X160377095Y-126563381D01*
X160091381Y-126563381D02*
X160091381Y-125563381D01*
X160186619Y-125706238D01*
X160281857Y-125801476D01*
X160377095Y-125849095D01*
X159186619Y-125563381D02*
X159091380Y-125563381D01*
X158996142Y-125611000D01*
X158948523Y-125658619D01*
X158900904Y-125753857D01*
X158853285Y-125944333D01*
X158853285Y-126182429D01*
X158900904Y-126372905D01*
X158948523Y-126468143D01*
X158996142Y-126515762D01*
X159091380Y-126563381D01*
X159186619Y-126563381D01*
X159281857Y-126515762D01*
X159329476Y-126468143D01*
X159377095Y-126372905D01*
X159424714Y-126182429D01*
X159424714Y-125944333D01*
X159377095Y-125753857D01*
X159329476Y-125658619D01*
X159281857Y-125611000D01*
X159186619Y-125563381D01*
X158519952Y-125563381D02*
X157900904Y-125563381D01*
X158234238Y-125944333D01*
X158091380Y-125944333D01*
X157996142Y-125991952D01*
X157948523Y-126039571D01*
X157900904Y-126134810D01*
X157900904Y-126372905D01*
X157948523Y-126468143D01*
X157996142Y-126515762D01*
X158091380Y-126563381D01*
X158377095Y-126563381D01*
X158472333Y-126515762D01*
X158519952Y-126468143D01*
X113157143Y-86080953D02*
X113204762Y-86033334D01*
X113252381Y-85890477D01*
X113252381Y-85795239D01*
X113204762Y-85652381D01*
X113109524Y-85557143D01*
X113014286Y-85509524D01*
X112823810Y-85461905D01*
X112680952Y-85461905D01*
X112490476Y-85509524D01*
X112395238Y-85557143D01*
X112300000Y-85652381D01*
X112252381Y-85795239D01*
X112252381Y-85890477D01*
X112300000Y-86033334D01*
X112347619Y-86080953D01*
X113252381Y-87033334D02*
X113252381Y-86461905D01*
X113252381Y-86747619D02*
X112252381Y-86747619D01*
X112395238Y-86652381D01*
X112490476Y-86557143D01*
X112538095Y-86461905D01*
X112252381Y-87652381D02*
X112252381Y-87747620D01*
X112300000Y-87842858D01*
X112347619Y-87890477D01*
X112442857Y-87938096D01*
X112633333Y-87985715D01*
X112871429Y-87985715D01*
X113061905Y-87938096D01*
X113157143Y-87890477D01*
X113204762Y-87842858D01*
X113252381Y-87747620D01*
X113252381Y-87652381D01*
X113204762Y-87557143D01*
X113157143Y-87509524D01*
X113061905Y-87461905D01*
X112871429Y-87414286D01*
X112633333Y-87414286D01*
X112442857Y-87461905D01*
X112347619Y-87509524D01*
X112300000Y-87557143D01*
X112252381Y-87652381D01*
X112585714Y-88842858D02*
X113252381Y-88842858D01*
X112204762Y-88604762D02*
X112919048Y-88366667D01*
X112919048Y-88985715D01*
X103735143Y-86129953D02*
X103782762Y-86082334D01*
X103830381Y-85939477D01*
X103830381Y-85844239D01*
X103782762Y-85701381D01*
X103687524Y-85606143D01*
X103592286Y-85558524D01*
X103401810Y-85510905D01*
X103258952Y-85510905D01*
X103068476Y-85558524D01*
X102973238Y-85606143D01*
X102878000Y-85701381D01*
X102830381Y-85844239D01*
X102830381Y-85939477D01*
X102878000Y-86082334D01*
X102925619Y-86129953D01*
X103830381Y-87082334D02*
X103830381Y-86510905D01*
X103830381Y-86796619D02*
X102830381Y-86796619D01*
X102973238Y-86701381D01*
X103068476Y-86606143D01*
X103116095Y-86510905D01*
X102830381Y-87701381D02*
X102830381Y-87796620D01*
X102878000Y-87891858D01*
X102925619Y-87939477D01*
X103020857Y-87987096D01*
X103211333Y-88034715D01*
X103449429Y-88034715D01*
X103639905Y-87987096D01*
X103735143Y-87939477D01*
X103782762Y-87891858D01*
X103830381Y-87796620D01*
X103830381Y-87701381D01*
X103782762Y-87606143D01*
X103735143Y-87558524D01*
X103639905Y-87510905D01*
X103449429Y-87463286D01*
X103211333Y-87463286D01*
X103020857Y-87510905D01*
X102925619Y-87558524D01*
X102878000Y-87606143D01*
X102830381Y-87701381D01*
X102830381Y-88939477D02*
X102830381Y-88463286D01*
X103306571Y-88415667D01*
X103258952Y-88463286D01*
X103211333Y-88558524D01*
X103211333Y-88796620D01*
X103258952Y-88891858D01*
X103306571Y-88939477D01*
X103401810Y-88987096D01*
X103639905Y-88987096D01*
X103735143Y-88939477D01*
X103782762Y-88891858D01*
X103830381Y-88796620D01*
X103830381Y-88558524D01*
X103782762Y-88463286D01*
X103735143Y-88415667D01*
X108434143Y-90447953D02*
X108481762Y-90400334D01*
X108529381Y-90257477D01*
X108529381Y-90162239D01*
X108481762Y-90019381D01*
X108386524Y-89924143D01*
X108291286Y-89876524D01*
X108100810Y-89828905D01*
X107957952Y-89828905D01*
X107767476Y-89876524D01*
X107672238Y-89924143D01*
X107577000Y-90019381D01*
X107529381Y-90162239D01*
X107529381Y-90257477D01*
X107577000Y-90400334D01*
X107624619Y-90447953D01*
X108529381Y-91400334D02*
X108529381Y-90828905D01*
X108529381Y-91114619D02*
X107529381Y-91114619D01*
X107672238Y-91019381D01*
X107767476Y-90924143D01*
X107815095Y-90828905D01*
X107529381Y-92019381D02*
X107529381Y-92114620D01*
X107577000Y-92209858D01*
X107624619Y-92257477D01*
X107719857Y-92305096D01*
X107910333Y-92352715D01*
X108148429Y-92352715D01*
X108338905Y-92305096D01*
X108434143Y-92257477D01*
X108481762Y-92209858D01*
X108529381Y-92114620D01*
X108529381Y-92019381D01*
X108481762Y-91924143D01*
X108434143Y-91876524D01*
X108338905Y-91828905D01*
X108148429Y-91781286D01*
X107910333Y-91781286D01*
X107719857Y-91828905D01*
X107624619Y-91876524D01*
X107577000Y-91924143D01*
X107529381Y-92019381D01*
X107529381Y-93209858D02*
X107529381Y-93019381D01*
X107577000Y-92924143D01*
X107624619Y-92876524D01*
X107767476Y-92781286D01*
X107957952Y-92733667D01*
X108338905Y-92733667D01*
X108434143Y-92781286D01*
X108481762Y-92828905D01*
X108529381Y-92924143D01*
X108529381Y-93114620D01*
X108481762Y-93209858D01*
X108434143Y-93257477D01*
X108338905Y-93305096D01*
X108100810Y-93305096D01*
X108005571Y-93257477D01*
X107957952Y-93209858D01*
X107910333Y-93114620D01*
X107910333Y-92924143D01*
X107957952Y-92828905D01*
X108005571Y-92781286D01*
X108100810Y-92733667D01*
X155551143Y-121054953D02*
X155598762Y-121007334D01*
X155646381Y-120864477D01*
X155646381Y-120769239D01*
X155598762Y-120626381D01*
X155503524Y-120531143D01*
X155408286Y-120483524D01*
X155217810Y-120435905D01*
X155074952Y-120435905D01*
X154884476Y-120483524D01*
X154789238Y-120531143D01*
X154694000Y-120626381D01*
X154646381Y-120769239D01*
X154646381Y-120864477D01*
X154694000Y-121007334D01*
X154741619Y-121054953D01*
X155646381Y-122007334D02*
X155646381Y-121435905D01*
X155646381Y-121721619D02*
X154646381Y-121721619D01*
X154789238Y-121626381D01*
X154884476Y-121531143D01*
X154932095Y-121435905D01*
X155646381Y-122959715D02*
X155646381Y-122388286D01*
X155646381Y-122674000D02*
X154646381Y-122674000D01*
X154789238Y-122578762D01*
X154884476Y-122483524D01*
X154932095Y-122388286D01*
X154646381Y-123578762D02*
X154646381Y-123674001D01*
X154694000Y-123769239D01*
X154741619Y-123816858D01*
X154836857Y-123864477D01*
X155027333Y-123912096D01*
X155265429Y-123912096D01*
X155455905Y-123864477D01*
X155551143Y-123816858D01*
X155598762Y-123769239D01*
X155646381Y-123674001D01*
X155646381Y-123578762D01*
X155598762Y-123483524D01*
X155551143Y-123435905D01*
X155455905Y-123388286D01*
X155265429Y-123340667D01*
X155027333Y-123340667D01*
X154836857Y-123388286D01*
X154741619Y-123435905D01*
X154694000Y-123483524D01*
X154646381Y-123578762D01*
X153011143Y-121054953D02*
X153058762Y-121007334D01*
X153106381Y-120864477D01*
X153106381Y-120769239D01*
X153058762Y-120626381D01*
X152963524Y-120531143D01*
X152868286Y-120483524D01*
X152677810Y-120435905D01*
X152534952Y-120435905D01*
X152344476Y-120483524D01*
X152249238Y-120531143D01*
X152154000Y-120626381D01*
X152106381Y-120769239D01*
X152106381Y-120864477D01*
X152154000Y-121007334D01*
X152201619Y-121054953D01*
X153106381Y-122007334D02*
X153106381Y-121435905D01*
X153106381Y-121721619D02*
X152106381Y-121721619D01*
X152249238Y-121626381D01*
X152344476Y-121531143D01*
X152392095Y-121435905D01*
X153106381Y-122959715D02*
X153106381Y-122388286D01*
X153106381Y-122674000D02*
X152106381Y-122674000D01*
X152249238Y-122578762D01*
X152344476Y-122483524D01*
X152392095Y-122388286D01*
X153106381Y-123912096D02*
X153106381Y-123340667D01*
X153106381Y-123626381D02*
X152106381Y-123626381D01*
X152249238Y-123531143D01*
X152344476Y-123435905D01*
X152392095Y-123340667D01*
X150344143Y-120927953D02*
X150391762Y-120880334D01*
X150439381Y-120737477D01*
X150439381Y-120642239D01*
X150391762Y-120499381D01*
X150296524Y-120404143D01*
X150201286Y-120356524D01*
X150010810Y-120308905D01*
X149867952Y-120308905D01*
X149677476Y-120356524D01*
X149582238Y-120404143D01*
X149487000Y-120499381D01*
X149439381Y-120642239D01*
X149439381Y-120737477D01*
X149487000Y-120880334D01*
X149534619Y-120927953D01*
X150439381Y-121880334D02*
X150439381Y-121308905D01*
X150439381Y-121594619D02*
X149439381Y-121594619D01*
X149582238Y-121499381D01*
X149677476Y-121404143D01*
X149725095Y-121308905D01*
X150439381Y-122832715D02*
X150439381Y-122261286D01*
X150439381Y-122547000D02*
X149439381Y-122547000D01*
X149582238Y-122451762D01*
X149677476Y-122356524D01*
X149725095Y-122261286D01*
X149534619Y-123213667D02*
X149487000Y-123261286D01*
X149439381Y-123356524D01*
X149439381Y-123594620D01*
X149487000Y-123689858D01*
X149534619Y-123737477D01*
X149629857Y-123785096D01*
X149725095Y-123785096D01*
X149867952Y-123737477D01*
X150439381Y-123166048D01*
X150439381Y-123785096D01*
X147931143Y-120927953D02*
X147978762Y-120880334D01*
X148026381Y-120737477D01*
X148026381Y-120642239D01*
X147978762Y-120499381D01*
X147883524Y-120404143D01*
X147788286Y-120356524D01*
X147597810Y-120308905D01*
X147454952Y-120308905D01*
X147264476Y-120356524D01*
X147169238Y-120404143D01*
X147074000Y-120499381D01*
X147026381Y-120642239D01*
X147026381Y-120737477D01*
X147074000Y-120880334D01*
X147121619Y-120927953D01*
X148026381Y-121880334D02*
X148026381Y-121308905D01*
X148026381Y-121594619D02*
X147026381Y-121594619D01*
X147169238Y-121499381D01*
X147264476Y-121404143D01*
X147312095Y-121308905D01*
X148026381Y-122832715D02*
X148026381Y-122261286D01*
X148026381Y-122547000D02*
X147026381Y-122547000D01*
X147169238Y-122451762D01*
X147264476Y-122356524D01*
X147312095Y-122261286D01*
X147026381Y-123166048D02*
X147026381Y-123785096D01*
X147407333Y-123451762D01*
X147407333Y-123594620D01*
X147454952Y-123689858D01*
X147502571Y-123737477D01*
X147597810Y-123785096D01*
X147835905Y-123785096D01*
X147931143Y-123737477D01*
X147978762Y-123689858D01*
X148026381Y-123594620D01*
X148026381Y-123308905D01*
X147978762Y-123213667D01*
X147931143Y-123166048D01*
%LPC*%
D13*
X165350000Y-121400000D03*
X162850000Y-121400000D03*
X165250000Y-123800000D03*
X162750000Y-123800000D03*
X165250000Y-126100000D03*
X162750000Y-126100000D03*
D14*
X110700000Y-88450000D03*
X110700000Y-85950000D03*
X105500000Y-88500000D03*
X105500000Y-86000000D03*
X108050000Y-88400000D03*
X108050000Y-85900000D03*
D15*
X120850000Y-99800000D03*
D16*
X118350000Y-99800000D03*
D15*
X149050000Y-97900000D03*
D16*
X146550000Y-97900000D03*
D15*
X97650000Y-101700000D03*
D16*
X95150000Y-101700000D03*
D17*
X142530000Y-83119200D03*
X145070000Y-83119200D03*
X147610000Y-83119200D03*
X150150000Y-83119200D03*
X152690000Y-83119200D03*
X155230000Y-83119200D03*
X157770000Y-83119200D03*
X160310000Y-83119200D03*
X165390000Y-131379200D03*
X162850000Y-131379200D03*
X160310000Y-131379200D03*
X157770000Y-131379200D03*
X147610000Y-131379200D03*
X142530000Y-131379200D03*
X139990000Y-131379200D03*
X150150000Y-131379200D03*
X152690000Y-131379200D03*
X155230000Y-131379200D03*
X137450000Y-131379200D03*
X134910000Y-131379200D03*
X132370000Y-131379200D03*
X124750000Y-131379200D03*
X127290000Y-131379200D03*
X129830000Y-131379200D03*
X119670000Y-131379200D03*
X117130000Y-131379200D03*
X114590000Y-131379200D03*
X109510000Y-131379200D03*
X106970000Y-131379200D03*
X137450000Y-83119200D03*
X134910000Y-83119200D03*
X132370000Y-83119200D03*
X129830000Y-83119200D03*
X127290000Y-83119200D03*
X124750000Y-83119200D03*
X122210000Y-83119200D03*
X119670000Y-83119200D03*
X115606000Y-83119200D03*
X113066000Y-83119200D03*
X110526000Y-83119200D03*
X107986000Y-83119200D03*
X105446000Y-83119200D03*
X102906000Y-83119200D03*
X100366000Y-83119200D03*
X97826000Y-83119200D03*
X112050000Y-131379200D03*
D18*
X170470000Y-131379200D03*
X164120000Y-83119200D03*
X89190000Y-83119200D03*
X87920000Y-131379200D03*
D19*
X167930000Y-85659200D03*
X170470000Y-85659200D03*
X167930000Y-88199200D03*
X170470000Y-88199200D03*
X167930000Y-90739200D03*
X170470000Y-90739200D03*
X167930000Y-93279200D03*
X170470000Y-93279200D03*
X167930000Y-83119200D03*
X170470000Y-83119200D03*
X170470000Y-95819200D03*
X167930000Y-95819200D03*
X167930000Y-98359200D03*
X170470000Y-98359200D03*
X167930000Y-100899200D03*
X170470000Y-100899200D03*
X167930000Y-103439200D03*
X170470000Y-103439200D03*
X167930000Y-105979200D03*
X170470000Y-105979200D03*
X167930000Y-108519200D03*
X170470000Y-108519200D03*
X167930000Y-111059200D03*
X170470000Y-111059200D03*
X167930000Y-113599200D03*
X170470000Y-113599200D03*
X167930000Y-116139200D03*
X170470000Y-116139200D03*
X167930000Y-118679200D03*
X170470000Y-118679200D03*
X167930000Y-121219200D03*
X170470000Y-121219200D03*
X167930000Y-123759200D03*
X170470000Y-123759200D03*
X167930000Y-126299200D03*
X170470000Y-126299200D03*
D20*
X162540000Y-91700000D03*
X160000000Y-91700000D03*
X157460000Y-91700000D03*
X154920000Y-91700000D03*
X152380000Y-91700000D03*
X149840000Y-91700000D03*
X147300000Y-91700000D03*
X144760000Y-91700000D03*
D21*
X144760000Y-104400000D03*
D20*
X147300000Y-104400000D03*
X149840000Y-104400000D03*
X152380000Y-104400000D03*
X154920000Y-104400000D03*
X157460000Y-104400000D03*
X160000000Y-104400000D03*
X162540000Y-104400000D03*
X133940000Y-93500000D03*
X131400000Y-93500000D03*
X128860000Y-93500000D03*
X126320000Y-93500000D03*
X123780000Y-93500000D03*
X121240000Y-93500000D03*
X118700000Y-93500000D03*
X116160000Y-93500000D03*
D21*
X116160000Y-106200000D03*
D20*
X118700000Y-106200000D03*
X121240000Y-106200000D03*
X123780000Y-106200000D03*
X126320000Y-106200000D03*
X128860000Y-106200000D03*
X131400000Y-106200000D03*
X133940000Y-106200000D03*
X110540000Y-95350000D03*
X108000000Y-95350000D03*
X105460000Y-95350000D03*
X102920000Y-95350000D03*
X100380000Y-95350000D03*
X97840000Y-95350000D03*
X95300000Y-95350000D03*
X92760000Y-95350000D03*
D21*
X92760000Y-108050000D03*
D20*
X95300000Y-108050000D03*
X97840000Y-108050000D03*
X100380000Y-108050000D03*
X102920000Y-108050000D03*
X105460000Y-108050000D03*
X108000000Y-108050000D03*
X110540000Y-108050000D03*
D14*
X155250000Y-127950000D03*
X155250000Y-125450000D03*
X152700000Y-127950000D03*
X152700000Y-125450000D03*
X150050000Y-127950000D03*
X150050000Y-125450000D03*
X147600000Y-128000000D03*
X147600000Y-125500000D03*
D22*
X178900000Y-87970000D03*
X178900000Y-93050000D03*
X178900000Y-98130000D03*
X178900000Y-103210000D03*
X178900000Y-108290000D03*
X178900000Y-113370000D03*
D23*
X178900000Y-123530000D03*
D22*
X178900000Y-118450000D03*
X130810000Y-144018000D03*
X125730000Y-144018000D03*
X120650000Y-144018000D03*
X115570000Y-144018000D03*
X110490000Y-144018000D03*
X105410000Y-144018000D03*
D23*
X95250000Y-144018000D03*
D22*
X100330000Y-144018000D03*
D19*
X155570000Y-109490000D03*
X153030000Y-109490000D03*
X150490000Y-109490000D03*
X158110000Y-109490000D03*
X153030000Y-117110000D03*
X123720000Y-111390000D03*
X121180000Y-111390000D03*
X118640000Y-111390000D03*
X126260000Y-111390000D03*
X121180000Y-119010000D03*
X99520000Y-113340000D03*
X96980000Y-113340000D03*
X94440000Y-113340000D03*
X102060000Y-113340000D03*
X96980000Y-120960000D03*
D23*
X80010000Y-144780000D03*
D22*
X85090000Y-144780000D03*
D23*
X133604000Y-70104000D03*
D22*
X128524000Y-70104000D03*
D24*
X175664000Y-75946000D03*
X142344000Y-75946000D03*
D25*
X149414000Y-77366000D03*
D19*
X152154000Y-77366000D03*
X154894000Y-77366000D03*
X157634000Y-77366000D03*
X160374000Y-77366000D03*
X163114000Y-77366000D03*
X165854000Y-77366000D03*
X168594000Y-77366000D03*
X150784000Y-74526000D03*
X153524000Y-74526000D03*
X156264000Y-74526000D03*
X159004000Y-74526000D03*
X161744000Y-74526000D03*
X164484000Y-74526000D03*
X167224000Y-74526000D03*
D24*
X142205000Y-138800000D03*
X167195000Y-138800000D03*
D25*
X160180000Y-137380000D03*
D19*
X157440000Y-137380000D03*
X154700000Y-137380000D03*
X151960000Y-137380000D03*
X149220000Y-137380000D03*
X158810000Y-140220000D03*
X156070000Y-140220000D03*
X153330000Y-140220000D03*
X150590000Y-140220000D03*
D24*
X119175000Y-75946000D03*
X94185000Y-75946000D03*
D25*
X112160000Y-77366000D03*
D19*
X109420000Y-77366000D03*
X106680000Y-77366000D03*
X103940000Y-77366000D03*
X101200000Y-77366000D03*
X102570000Y-74526000D03*
X105310000Y-74526000D03*
X108050000Y-74526000D03*
X110790000Y-74526000D03*
M02*
