M48
;DRILL file {KiCad 4.0.5} date Wednesday, August 30, 2017 'PMt' 12:57:55 PM
;FORMAT={-:-/ absolute / metric / decimal}
FMAT,2
METRIC,TZ
T1C0.330
T2C0.800
T3C0.813
T4C1.016
T5C1.300
T6C3.100
T7C3.175
%
G90
G05
M71
T1
X86.868Y-103.886
X88.392Y-106.172
X95.25Y-129.286
X104.318Y-117.475
X105.74Y-115.748
X107.467Y-98.273
X107.467Y-101.625
X156.972Y-100.838
X158.75Y-102.108
X163.83Y-102.108
X164.338Y-96.52
X164.592Y-93.472
X165.354Y-119.634
X165.354Y-128.016
X166.37Y-91.948
X166.37Y-94.742
X166.624Y-122.936
T2
X94.44Y-113.34
X95.15Y-101.7
X96.98Y-113.34
X96.98Y-120.96
X97.65Y-101.7
X99.52Y-113.34
X102.06Y-113.34
X118.35Y-99.8
X118.64Y-111.39
X120.85Y-99.8
X121.18Y-111.39
X121.18Y-119.01
X123.72Y-111.39
X126.26Y-111.39
X146.55Y-97.9
X149.05Y-97.9
X150.49Y-109.49
X153.03Y-109.49
X153.03Y-117.11
X155.57Y-109.49
X158.11Y-109.49
T3
X97.826Y-83.119
X100.366Y-83.119
X102.906Y-83.119
X105.446Y-83.119
X106.97Y-131.379
X107.986Y-83.119
X109.51Y-131.379
X110.526Y-83.119
X112.05Y-131.379
X113.066Y-83.119
X114.59Y-131.379
X115.606Y-83.119
X117.13Y-131.379
X119.67Y-83.119
X119.67Y-131.379
X122.21Y-83.119
X124.75Y-83.119
X124.75Y-131.379
X127.29Y-83.119
X127.29Y-131.379
X129.83Y-83.119
X129.83Y-131.379
X132.37Y-83.119
X132.37Y-131.379
X134.91Y-83.119
X134.91Y-131.379
X137.45Y-83.119
X137.45Y-131.379
X139.99Y-131.379
X142.53Y-83.119
X142.53Y-131.379
X145.07Y-83.119
X147.61Y-83.119
X147.61Y-131.379
X150.15Y-83.119
X150.15Y-131.379
X152.69Y-83.119
X152.69Y-131.379
X155.23Y-83.119
X155.23Y-131.379
X157.77Y-83.119
X157.77Y-131.379
X160.31Y-83.119
X160.31Y-131.379
X162.85Y-131.379
X165.39Y-131.379
X167.93Y-83.119
X167.93Y-85.659
X167.93Y-88.199
X167.93Y-90.739
X167.93Y-93.279
X167.93Y-95.819
X167.93Y-98.359
X167.93Y-100.899
X167.93Y-103.439
X167.93Y-105.979
X167.93Y-108.519
X167.93Y-111.059
X167.93Y-113.599
X167.93Y-116.139
X167.93Y-118.679
X167.93Y-121.219
X167.93Y-123.759
X167.93Y-126.299
X170.47Y-83.119
X170.47Y-85.659
X170.47Y-88.199
X170.47Y-90.739
X170.47Y-93.279
X170.47Y-95.819
X170.47Y-98.359
X170.47Y-100.899
X170.47Y-103.439
X170.47Y-105.979
X170.47Y-108.519
X170.47Y-111.059
X170.47Y-113.599
X170.47Y-116.139
X170.47Y-118.679
X170.47Y-121.219
X170.47Y-123.759
X170.47Y-126.299
T4
X92.76Y-95.35
X92.76Y-108.05
X95.3Y-95.35
X95.3Y-108.05
X97.84Y-95.35
X97.84Y-108.05
X100.38Y-95.35
X100.38Y-108.05
X101.2Y-77.366
X102.57Y-74.526
X102.92Y-95.35
X102.92Y-108.05
X103.94Y-77.366
X105.31Y-74.526
X105.46Y-95.35
X105.46Y-108.05
X106.68Y-77.366
X108.Y-95.35
X108.Y-108.05
X108.05Y-74.526
X109.42Y-77.366
X110.54Y-95.35
X110.54Y-108.05
X110.79Y-74.526
X112.16Y-77.366
X116.16Y-93.5
X116.16Y-106.2
X118.7Y-93.5
X118.7Y-106.2
X121.24Y-93.5
X121.24Y-106.2
X123.78Y-93.5
X123.78Y-106.2
X126.32Y-93.5
X126.32Y-106.2
X128.86Y-93.5
X128.86Y-106.2
X131.4Y-93.5
X131.4Y-106.2
X133.94Y-93.5
X133.94Y-106.2
X144.76Y-91.7
X144.76Y-104.4
X147.3Y-91.7
X147.3Y-104.4
X149.22Y-137.38
X149.414Y-77.366
X149.84Y-91.7
X149.84Y-104.4
X150.59Y-140.22
X150.784Y-74.526
X151.96Y-137.38
X152.154Y-77.366
X152.38Y-91.7
X152.38Y-104.4
X153.33Y-140.22
X153.524Y-74.526
X154.7Y-137.38
X154.894Y-77.366
X154.92Y-91.7
X154.92Y-104.4
X156.07Y-140.22
X156.264Y-74.526
X157.44Y-137.38
X157.46Y-91.7
X157.46Y-104.4
X157.634Y-77.366
X158.81Y-140.22
X159.004Y-74.526
X160.Y-91.7
X160.Y-104.4
X160.18Y-137.38
X160.374Y-77.366
X161.744Y-74.526
X162.54Y-91.7
X162.54Y-104.4
X163.114Y-77.366
X164.484Y-74.526
X165.854Y-77.366
X167.224Y-74.526
X168.594Y-77.366
T5
X80.01Y-144.78
X85.09Y-144.78
X95.25Y-144.018
X100.33Y-144.018
X105.41Y-144.018
X110.49Y-144.018
X115.57Y-144.018
X120.65Y-144.018
X125.73Y-144.018
X128.524Y-70.104
X130.81Y-144.018
X133.604Y-70.104
X178.9Y-87.97
X178.9Y-93.05
X178.9Y-98.13
X178.9Y-103.21
X178.9Y-108.29
X178.9Y-113.37
X178.9Y-118.45
X178.9Y-123.53
T6
X94.185Y-75.946
X119.175Y-75.946
X142.205Y-138.8
X142.344Y-75.946
X167.195Y-138.8
X175.664Y-75.946
T7
X87.92Y-131.379
X89.19Y-83.119
X164.12Y-83.119
X170.47Y-131.379
T0
M30
